G04 #@! TF.FileFunction,Legend,Top*
%FSLAX46Y46*%
G04 Gerber Fmt 4.6, Leading zero omitted, Abs format (unit mm)*
G04 Created by KiCad (PCBNEW 4.0.2-stable) date Mittwoch, 01. Februar 2017 'u37' 22:37:39*
%MOMM*%
G01*
G04 APERTURE LIST*
%ADD10C,0.100000*%
%ADD11C,0.150000*%
%ADD12C,0.300000*%
G04 APERTURE END LIST*
D10*
D11*
X32975000Y-51550000D02*
X46945000Y-51550000D01*
X46945000Y-51550000D02*
X46945000Y-47740000D01*
X46945000Y-47740000D02*
X45040000Y-47740000D01*
X45040000Y-47740000D02*
X45040000Y-45200000D01*
X45040000Y-45200000D02*
X46945000Y-45200000D01*
X46945000Y-45200000D02*
X46945000Y-35040000D01*
X46945000Y-35040000D02*
X45675000Y-35040000D01*
X45675000Y-35040000D02*
X45675000Y-29960000D01*
X45675000Y-29960000D02*
X45040000Y-29960000D01*
X45040000Y-29960000D02*
X45040000Y-24880000D01*
X45040000Y-24880000D02*
X46310000Y-24880000D01*
X46310000Y-24880000D02*
X46310000Y-23610000D01*
X46310000Y-23610000D02*
X33610000Y-23610000D01*
X33610000Y-23610000D02*
X33610000Y-24880000D01*
X33610000Y-24880000D02*
X34880000Y-24880000D01*
X34880000Y-24880000D02*
X34880000Y-29960000D01*
X34880000Y-29960000D02*
X34245000Y-29960000D01*
X34245000Y-29960000D02*
X34245000Y-35040000D01*
X34245000Y-35040000D02*
X32975000Y-35040000D01*
X32975000Y-35040000D02*
X32975000Y-45200000D01*
X32975000Y-45200000D02*
X34880000Y-45200000D01*
X34880000Y-45200000D02*
X34880000Y-47740000D01*
X34880000Y-47740000D02*
X32975000Y-47740000D01*
X32975000Y-47740000D02*
X32975000Y-51550000D01*
D12*
X42500000Y-47740000D02*
X43516000Y-47232000D01*
X43516000Y-47232000D02*
X43516000Y-48248000D01*
X43516000Y-48248000D02*
X42500000Y-47740000D01*
D11*
X54737000Y-36957000D02*
X54737000Y-36957000D01*
X50546000Y-24384000D02*
X48006000Y-24384000D01*
X48006000Y-24384000D02*
X48006000Y-26924000D01*
X48006000Y-26924000D02*
X50546000Y-26924000D01*
X53086000Y-24384000D02*
X50546000Y-24384000D01*
X50546000Y-26924000D02*
X53086000Y-26924000D01*
X53086000Y-26924000D02*
X53086000Y-24384000D01*
X50038000Y-43942000D02*
X50038000Y-46482000D01*
X50038000Y-46482000D02*
X47498000Y-46482000D01*
X47498000Y-46482000D02*
X47498000Y-43942000D01*
X50038000Y-43942000D02*
X50038000Y-38862000D01*
X50038000Y-38862000D02*
X47498000Y-38862000D01*
X47498000Y-38862000D02*
X47498000Y-43942000D01*
X53086000Y-33782000D02*
X53086000Y-31242000D01*
X53086000Y-31242000D02*
X50546000Y-31242000D01*
X50546000Y-31242000D02*
X50546000Y-33782000D01*
X53086000Y-33782000D02*
X53086000Y-51562000D01*
X53086000Y-51562000D02*
X50546000Y-51562000D01*
X50546000Y-51562000D02*
X50546000Y-33782000D01*
X39425619Y-50141143D02*
X39378000Y-50188762D01*
X39235143Y-50236381D01*
X39139905Y-50236381D01*
X38997047Y-50188762D01*
X38901809Y-50093524D01*
X38854190Y-49998286D01*
X38806571Y-49807810D01*
X38806571Y-49664952D01*
X38854190Y-49474476D01*
X38901809Y-49379238D01*
X38997047Y-49284000D01*
X39139905Y-49236381D01*
X39235143Y-49236381D01*
X39378000Y-49284000D01*
X39425619Y-49331619D01*
X40282762Y-50236381D02*
X40282762Y-49712571D01*
X40235143Y-49617333D01*
X40139905Y-49569714D01*
X39949428Y-49569714D01*
X39854190Y-49617333D01*
X40282762Y-50188762D02*
X40187524Y-50236381D01*
X39949428Y-50236381D01*
X39854190Y-50188762D01*
X39806571Y-50093524D01*
X39806571Y-49998286D01*
X39854190Y-49903048D01*
X39949428Y-49855429D01*
X40187524Y-49855429D01*
X40282762Y-49807810D01*
X40758952Y-50236381D02*
X40758952Y-49569714D01*
X40758952Y-49760190D02*
X40806571Y-49664952D01*
X40854190Y-49617333D01*
X40949428Y-49569714D01*
X41044667Y-49569714D01*
X60698191Y-40584381D02*
X60364857Y-40108190D01*
X60126762Y-40584381D02*
X60126762Y-39584381D01*
X60507715Y-39584381D01*
X60602953Y-39632000D01*
X60650572Y-39679619D01*
X60698191Y-39774857D01*
X60698191Y-39917714D01*
X60650572Y-40012952D01*
X60602953Y-40060571D01*
X60507715Y-40108190D01*
X60126762Y-40108190D01*
X61412477Y-39584381D02*
X61412477Y-40298667D01*
X61364857Y-40441524D01*
X61269619Y-40536762D01*
X61126762Y-40584381D01*
X61031524Y-40584381D01*
X62317239Y-39917714D02*
X62317239Y-40584381D01*
X62079143Y-39536762D02*
X61841048Y-40251048D01*
X62460096Y-40251048D01*
X63317239Y-39584381D02*
X62841048Y-39584381D01*
X62793429Y-40060571D01*
X62841048Y-40012952D01*
X62936286Y-39965333D01*
X63174382Y-39965333D01*
X63269620Y-40012952D01*
X63317239Y-40060571D01*
X63364858Y-40155810D01*
X63364858Y-40393905D01*
X63317239Y-40489143D01*
X63269620Y-40536762D01*
X63174382Y-40584381D01*
X62936286Y-40584381D01*
X62841048Y-40536762D01*
X62793429Y-40489143D01*
X48736476Y-27646381D02*
X49307905Y-27646381D01*
X49022190Y-28646381D02*
X49022190Y-27646381D01*
X49641238Y-28122571D02*
X49974572Y-28122571D01*
X50117429Y-28646381D02*
X49641238Y-28646381D01*
X49641238Y-27646381D01*
X50117429Y-27646381D01*
X51117429Y-28646381D02*
X50784095Y-28170190D01*
X50546000Y-28646381D02*
X50546000Y-27646381D01*
X50926953Y-27646381D01*
X51022191Y-27694000D01*
X51069810Y-27741619D01*
X51117429Y-27836857D01*
X51117429Y-27979714D01*
X51069810Y-28074952D01*
X51022191Y-28122571D01*
X50926953Y-28170190D01*
X50546000Y-28170190D01*
X51546000Y-28646381D02*
X51546000Y-27646381D01*
X51879334Y-28360667D01*
X52212667Y-27646381D01*
X52212667Y-28646381D01*
X30170381Y-44044382D02*
X29170381Y-44044382D01*
X29503714Y-43568192D02*
X30170381Y-43568192D01*
X29598952Y-43568192D02*
X29551333Y-43520573D01*
X29503714Y-43425335D01*
X29503714Y-43282477D01*
X29551333Y-43187239D01*
X29646571Y-43139620D01*
X30170381Y-43139620D01*
X30122762Y-42711049D02*
X30170381Y-42615811D01*
X30170381Y-42425335D01*
X30122762Y-42330096D01*
X30027524Y-42282477D01*
X29979905Y-42282477D01*
X29884667Y-42330096D01*
X29837048Y-42425335D01*
X29837048Y-42568192D01*
X29789429Y-42663430D01*
X29694190Y-42711049D01*
X29646571Y-42711049D01*
X29551333Y-42663430D01*
X29503714Y-42568192D01*
X29503714Y-42425335D01*
X29551333Y-42330096D01*
X29503714Y-41996763D02*
X29503714Y-41615811D01*
X29170381Y-41853906D02*
X30027524Y-41853906D01*
X30122762Y-41806287D01*
X30170381Y-41711049D01*
X30170381Y-41615811D01*
X29503714Y-40853905D02*
X30170381Y-40853905D01*
X29503714Y-41282477D02*
X30027524Y-41282477D01*
X30122762Y-41234858D01*
X30170381Y-41139620D01*
X30170381Y-40996762D01*
X30122762Y-40901524D01*
X30075143Y-40853905D01*
X30170381Y-40377715D02*
X29503714Y-40377715D01*
X29598952Y-40377715D02*
X29551333Y-40330096D01*
X29503714Y-40234858D01*
X29503714Y-40092000D01*
X29551333Y-39996762D01*
X29646571Y-39949143D01*
X30170381Y-39949143D01*
X29646571Y-39949143D02*
X29551333Y-39901524D01*
X29503714Y-39806286D01*
X29503714Y-39663429D01*
X29551333Y-39568191D01*
X29646571Y-39520572D01*
X30170381Y-39520572D01*
X30122762Y-38663429D02*
X30170381Y-38758667D01*
X30170381Y-38949144D01*
X30122762Y-39044382D01*
X30027524Y-39092001D01*
X29646571Y-39092001D01*
X29551333Y-39044382D01*
X29503714Y-38949144D01*
X29503714Y-38758667D01*
X29551333Y-38663429D01*
X29646571Y-38615810D01*
X29741810Y-38615810D01*
X29837048Y-39092001D01*
X29503714Y-38187239D02*
X30170381Y-38187239D01*
X29598952Y-38187239D02*
X29551333Y-38139620D01*
X29503714Y-38044382D01*
X29503714Y-37901524D01*
X29551333Y-37806286D01*
X29646571Y-37758667D01*
X30170381Y-37758667D01*
X29503714Y-37425334D02*
X29503714Y-37044382D01*
X29170381Y-37282477D02*
X30027524Y-37282477D01*
X30122762Y-37234858D01*
X30170381Y-37139620D01*
X30170381Y-37044382D01*
X30075143Y-35377714D02*
X30122762Y-35425333D01*
X30170381Y-35568190D01*
X30170381Y-35663428D01*
X30122762Y-35806286D01*
X30027524Y-35901524D01*
X29932286Y-35949143D01*
X29741810Y-35996762D01*
X29598952Y-35996762D01*
X29408476Y-35949143D01*
X29313238Y-35901524D01*
X29218000Y-35806286D01*
X29170381Y-35663428D01*
X29170381Y-35568190D01*
X29218000Y-35425333D01*
X29265619Y-35377714D01*
X30170381Y-34806286D02*
X30122762Y-34901524D01*
X30027524Y-34949143D01*
X29170381Y-34949143D01*
X29503714Y-33996761D02*
X30170381Y-33996761D01*
X29503714Y-34425333D02*
X30027524Y-34425333D01*
X30122762Y-34377714D01*
X30170381Y-34282476D01*
X30170381Y-34139618D01*
X30122762Y-34044380D01*
X30075143Y-33996761D01*
X30122762Y-33568190D02*
X30170381Y-33472952D01*
X30170381Y-33282476D01*
X30122762Y-33187237D01*
X30027524Y-33139618D01*
X29979905Y-33139618D01*
X29884667Y-33187237D01*
X29837048Y-33282476D01*
X29837048Y-33425333D01*
X29789429Y-33520571D01*
X29694190Y-33568190D01*
X29646571Y-33568190D01*
X29551333Y-33520571D01*
X29503714Y-33425333D01*
X29503714Y-33282476D01*
X29551333Y-33187237D01*
X29503714Y-32853904D02*
X29503714Y-32472952D01*
X29170381Y-32711047D02*
X30027524Y-32711047D01*
X30122762Y-32663428D01*
X30170381Y-32568190D01*
X30170381Y-32472952D01*
X30122762Y-31758665D02*
X30170381Y-31853903D01*
X30170381Y-32044380D01*
X30122762Y-32139618D01*
X30027524Y-32187237D01*
X29646571Y-32187237D01*
X29551333Y-32139618D01*
X29503714Y-32044380D01*
X29503714Y-31853903D01*
X29551333Y-31758665D01*
X29646571Y-31711046D01*
X29741810Y-31711046D01*
X29837048Y-32187237D01*
X30170381Y-31282475D02*
X29503714Y-31282475D01*
X29694190Y-31282475D02*
X29598952Y-31234856D01*
X29551333Y-31187237D01*
X29503714Y-31091999D01*
X29503714Y-30996760D01*
M02*
