G04 #@! TF.FileFunction,Copper,L2,Bot,Signal*
%FSLAX46Y46*%
G04 Gerber Fmt 4.6, Leading zero omitted, Abs format (unit mm)*
G04 Created by KiCad (PCBNEW 4.0.2-stable) date Mittwoch, 01. Februar 2017 'u37' 22:37:39*
%MOMM*%
G01*
G04 APERTURE LIST*
%ADD10C,0.100000*%
%ADD11C,1.500000*%
%ADD12C,4.000000*%
%ADD13C,2.300000*%
%ADD14R,1.500000X1.500000*%
%ADD15R,4.000000X1.800000*%
%ADD16C,0.600000*%
%ADD17C,0.430000*%
%ADD18C,0.300000*%
G04 APERTURE END LIST*
D10*
D11*
X41230000Y-47740000D03*
X41230000Y-45200000D03*
X41230000Y-42660000D03*
X41230000Y-40120000D03*
X41230000Y-37580000D03*
X41230000Y-35040000D03*
X41230000Y-32500000D03*
X41230000Y-29960000D03*
X41230000Y-27420000D03*
X38690000Y-47740000D03*
X38690000Y-45200000D03*
X38690000Y-42660000D03*
X38690000Y-40120000D03*
X38690000Y-37580000D03*
X38690000Y-35040000D03*
X38690000Y-32500000D03*
X38690000Y-29960000D03*
X38690000Y-27420000D03*
X66167000Y-44577000D03*
X64897000Y-47117000D03*
X63627000Y-44577000D03*
X62357000Y-47117000D03*
X61087000Y-44577000D03*
X59817000Y-47117000D03*
X58547000Y-44577000D03*
X57277000Y-47117000D03*
D12*
X67437000Y-38608000D03*
X56007000Y-38608000D03*
D13*
X53848000Y-41402000D03*
X69596000Y-41402000D03*
D11*
X49276000Y-25654000D03*
X51816000Y-25654000D03*
X48768000Y-45212000D03*
X48768000Y-42672000D03*
X48768000Y-40132000D03*
D14*
X51816000Y-32512000D03*
D11*
X51816000Y-35052000D03*
X51816000Y-37592000D03*
X51816000Y-40132000D03*
X51816000Y-42672000D03*
X51816000Y-45212000D03*
X51816000Y-47752000D03*
X51816000Y-50292000D03*
D15*
X25960000Y-47740000D03*
X25960000Y-45200000D03*
X25960000Y-42660000D03*
X25960000Y-40120000D03*
X25960000Y-37580000D03*
X25960000Y-35040000D03*
X25960000Y-32500000D03*
X25960000Y-29960000D03*
X25960000Y-27420000D03*
D10*
G36*
X51153060Y-28011120D02*
X51153060Y-30408880D01*
X47652940Y-30010100D01*
X47652940Y-28409900D01*
X51153060Y-28011120D01*
X51153060Y-28011120D01*
G37*
G36*
X42826940Y-30408880D02*
X42826940Y-28011120D01*
X46327060Y-28409900D01*
X46327060Y-30010100D01*
X42826940Y-30408880D01*
X42826940Y-30408880D01*
G37*
D16*
X44577000Y-29210000D03*
D17*
X25960000Y-40120000D02*
X27928000Y-40120000D01*
X27928000Y-40120000D02*
X29210000Y-41402000D01*
X29210000Y-41402000D02*
X39948000Y-41402000D01*
X39948000Y-41402000D02*
X41230000Y-40120000D01*
X25960000Y-37580000D02*
X27928000Y-37580000D01*
X27928000Y-37580000D02*
X29210000Y-38862000D01*
X29210000Y-38862000D02*
X39948000Y-38862000D01*
X39948000Y-38862000D02*
X41230000Y-37580000D01*
X25960000Y-32500000D02*
X27928000Y-32500000D01*
X27928000Y-32500000D02*
X29210000Y-33782000D01*
X29210000Y-33782000D02*
X39948000Y-33782000D01*
X39948000Y-33782000D02*
X41230000Y-32500000D01*
X25960000Y-29960000D02*
X27928000Y-29960000D01*
X27928000Y-29960000D02*
X29210000Y-31242000D01*
X29210000Y-31242000D02*
X39948000Y-31242000D01*
X39948000Y-31242000D02*
X41230000Y-29960000D01*
X25960000Y-27420000D02*
X27928000Y-27420000D01*
X27928000Y-27420000D02*
X29210000Y-28702000D01*
X29210000Y-28702000D02*
X39948000Y-28702000D01*
X39948000Y-28702000D02*
X41230000Y-27420000D01*
X64897000Y-47117000D02*
X64897000Y-41021000D01*
X53848000Y-35052000D02*
X51816000Y-35052000D01*
X54356000Y-34544000D02*
X53848000Y-35052000D01*
X62738000Y-34544000D02*
X54356000Y-34544000D01*
X64008000Y-35814000D02*
X62738000Y-34544000D01*
X64008000Y-40132000D02*
X64008000Y-35814000D01*
X64897000Y-41021000D02*
X64008000Y-40132000D01*
X51816000Y-32512000D02*
X53086000Y-32512000D01*
X66167000Y-41275000D02*
X66167000Y-44577000D01*
X64770000Y-39878000D02*
X66167000Y-41275000D01*
X64770000Y-35560000D02*
X64770000Y-39878000D01*
X62992000Y-33782000D02*
X64770000Y-35560000D01*
X54356000Y-33782000D02*
X62992000Y-33782000D01*
X53086000Y-32512000D02*
X54356000Y-33782000D01*
X51816000Y-25654000D02*
X50292000Y-24130000D01*
X41980000Y-24130000D02*
X38690000Y-27420000D01*
X50292000Y-24130000D02*
X41980000Y-24130000D01*
X62357000Y-47117000D02*
X62357000Y-41021000D01*
X53340000Y-38608000D02*
X51816000Y-40132000D01*
X53340000Y-36576000D02*
X53340000Y-38608000D01*
X54610000Y-35306000D02*
X53340000Y-36576000D01*
X62484000Y-35306000D02*
X54610000Y-35306000D01*
X63246000Y-36068000D02*
X62484000Y-35306000D01*
X63246000Y-40132000D02*
X63246000Y-36068000D01*
X62357000Y-41021000D02*
X63246000Y-40132000D01*
X51816000Y-42672000D02*
X52832000Y-42672000D01*
X59690000Y-43180000D02*
X61087000Y-44577000D01*
X53340000Y-43180000D02*
X59690000Y-43180000D01*
X52832000Y-42672000D02*
X53340000Y-43180000D01*
X51816000Y-47752000D02*
X54356000Y-47752000D01*
X57531000Y-44577000D02*
X58547000Y-44577000D01*
X54356000Y-47752000D02*
X57531000Y-44577000D01*
X49276000Y-25654000D02*
X49276000Y-29083000D01*
X49276000Y-29083000D02*
X49403000Y-29210000D01*
D18*
G36*
X59109857Y-46056684D02*
X58757919Y-46408007D01*
X58567217Y-46867269D01*
X58566783Y-47364550D01*
X58756684Y-47824143D01*
X59108007Y-48176081D01*
X59567269Y-48366783D01*
X60064550Y-48367217D01*
X60524143Y-48177316D01*
X60876081Y-47825993D01*
X61066783Y-47366731D01*
X61067217Y-46869450D01*
X60877316Y-46409857D01*
X60525993Y-46057919D01*
X60073433Y-45870000D01*
X61642000Y-45870000D01*
X61642000Y-46064527D01*
X61297919Y-46408007D01*
X61107217Y-46867269D01*
X61106783Y-47364550D01*
X61296684Y-47824143D01*
X61648007Y-48176081D01*
X62107269Y-48366783D01*
X62604550Y-48367217D01*
X63064143Y-48177316D01*
X63416081Y-47825993D01*
X63606783Y-47366731D01*
X63607217Y-46869450D01*
X63417316Y-46409857D01*
X63072000Y-46063937D01*
X63072000Y-45870000D01*
X64182000Y-45870000D01*
X64182000Y-46064527D01*
X63837919Y-46408007D01*
X63647217Y-46867269D01*
X63646783Y-47364550D01*
X63836684Y-47824143D01*
X64188007Y-48176081D01*
X64647269Y-48366783D01*
X65144550Y-48367217D01*
X65604143Y-48177316D01*
X65956081Y-47825993D01*
X66146783Y-47366731D01*
X66147217Y-46869450D01*
X65957316Y-46409857D01*
X65612000Y-46063937D01*
X65612000Y-45870000D01*
X70799000Y-45870000D01*
X70799000Y-49981370D01*
X70716355Y-50396855D01*
X70513078Y-50701080D01*
X70208857Y-50904353D01*
X69793369Y-50987000D01*
X52919243Y-50987000D01*
X52962610Y-50943633D01*
X52837706Y-50818729D01*
X53013166Y-50729168D01*
X53089335Y-50237754D01*
X53013166Y-49854832D01*
X52837705Y-49765270D01*
X52310975Y-50292000D01*
X52325117Y-50306142D01*
X51830142Y-50801117D01*
X51816000Y-50786975D01*
X51801858Y-50801117D01*
X51306883Y-50306142D01*
X51321025Y-50292000D01*
X50794295Y-49765270D01*
X50618834Y-49854832D01*
X50542665Y-50346246D01*
X50618834Y-50729168D01*
X50794294Y-50818729D01*
X50669390Y-50943633D01*
X50712757Y-50987000D01*
X25456630Y-50987000D01*
X25041145Y-50904355D01*
X24736920Y-50701078D01*
X24533647Y-50396857D01*
X24451000Y-49981369D01*
X24451000Y-49270295D01*
X51289270Y-49270295D01*
X51816000Y-49797025D01*
X52342730Y-49270295D01*
X52253168Y-49094834D01*
X51761754Y-49018665D01*
X51378832Y-49094834D01*
X51289270Y-49270295D01*
X24451000Y-49270295D01*
X24451000Y-49140000D01*
X25485000Y-49140000D01*
X25610000Y-49015000D01*
X25610000Y-48090000D01*
X26310000Y-48090000D01*
X26310000Y-49015000D01*
X26435000Y-49140000D01*
X28059456Y-49140000D01*
X28243227Y-49063880D01*
X28383879Y-48923227D01*
X28460000Y-48739456D01*
X28460000Y-48215000D01*
X28335000Y-48090000D01*
X26310000Y-48090000D01*
X25610000Y-48090000D01*
X25590000Y-48090000D01*
X25590000Y-47390000D01*
X25610000Y-47390000D01*
X25610000Y-47370000D01*
X26310000Y-47370000D01*
X26310000Y-47390000D01*
X28335000Y-47390000D01*
X28460000Y-47265000D01*
X28460000Y-46740544D01*
X28415039Y-46632000D01*
X38098260Y-46632000D01*
X37982857Y-46679684D01*
X37630919Y-47031007D01*
X37440217Y-47490269D01*
X37439783Y-47987550D01*
X37629684Y-48447143D01*
X37981007Y-48799081D01*
X38440269Y-48989783D01*
X38937550Y-48990217D01*
X39397143Y-48800316D01*
X39435821Y-48761705D01*
X40703270Y-48761705D01*
X40792832Y-48937166D01*
X41284246Y-49013335D01*
X41667168Y-48937166D01*
X41756730Y-48761705D01*
X41230000Y-48234975D01*
X40703270Y-48761705D01*
X39435821Y-48761705D01*
X39749081Y-48448993D01*
X39939783Y-47989731D01*
X39939953Y-47794246D01*
X39956665Y-47794246D01*
X40032834Y-48177168D01*
X40208295Y-48266730D01*
X40735025Y-47740000D01*
X41724975Y-47740000D01*
X42251705Y-48266730D01*
X42427166Y-48177168D01*
X42503335Y-47685754D01*
X42427166Y-47302832D01*
X42251705Y-47213270D01*
X41724975Y-47740000D01*
X40735025Y-47740000D01*
X40208295Y-47213270D01*
X40032834Y-47302832D01*
X39956665Y-47794246D01*
X39939953Y-47794246D01*
X39940217Y-47492450D01*
X39750316Y-47032857D01*
X39398993Y-46680919D01*
X39281183Y-46632000D01*
X40747318Y-46632000D01*
X40703270Y-46718295D01*
X41230000Y-47245025D01*
X41756730Y-46718295D01*
X41712682Y-46632000D01*
X51253303Y-46632000D01*
X51108857Y-46691684D01*
X50756919Y-47043007D01*
X50566217Y-47502269D01*
X50565783Y-47999550D01*
X50755684Y-48459143D01*
X51107007Y-48811081D01*
X51566269Y-49001783D01*
X52063550Y-49002217D01*
X52523143Y-48812316D01*
X52869063Y-48467000D01*
X54356000Y-48467000D01*
X54629619Y-48412574D01*
X54861581Y-48257581D01*
X54980457Y-48138705D01*
X56750270Y-48138705D01*
X56839832Y-48314166D01*
X57331246Y-48390335D01*
X57714168Y-48314166D01*
X57803730Y-48138705D01*
X57277000Y-47611975D01*
X56750270Y-48138705D01*
X54980457Y-48138705D01*
X56013891Y-47105271D01*
X56003665Y-47171246D01*
X56079834Y-47554168D01*
X56255295Y-47643730D01*
X56782025Y-47117000D01*
X57771975Y-47117000D01*
X58298705Y-47643730D01*
X58474166Y-47554168D01*
X58550335Y-47062754D01*
X58474166Y-46679832D01*
X58298705Y-46590270D01*
X57771975Y-47117000D01*
X56782025Y-47117000D01*
X56767883Y-47102858D01*
X57262858Y-46607883D01*
X57277000Y-46622025D01*
X57803730Y-46095295D01*
X57714168Y-45919834D01*
X57392658Y-45870000D01*
X59561664Y-45870000D01*
X59109857Y-46056684D01*
X59109857Y-46056684D01*
G37*
X59109857Y-46056684D02*
X58757919Y-46408007D01*
X58567217Y-46867269D01*
X58566783Y-47364550D01*
X58756684Y-47824143D01*
X59108007Y-48176081D01*
X59567269Y-48366783D01*
X60064550Y-48367217D01*
X60524143Y-48177316D01*
X60876081Y-47825993D01*
X61066783Y-47366731D01*
X61067217Y-46869450D01*
X60877316Y-46409857D01*
X60525993Y-46057919D01*
X60073433Y-45870000D01*
X61642000Y-45870000D01*
X61642000Y-46064527D01*
X61297919Y-46408007D01*
X61107217Y-46867269D01*
X61106783Y-47364550D01*
X61296684Y-47824143D01*
X61648007Y-48176081D01*
X62107269Y-48366783D01*
X62604550Y-48367217D01*
X63064143Y-48177316D01*
X63416081Y-47825993D01*
X63606783Y-47366731D01*
X63607217Y-46869450D01*
X63417316Y-46409857D01*
X63072000Y-46063937D01*
X63072000Y-45870000D01*
X64182000Y-45870000D01*
X64182000Y-46064527D01*
X63837919Y-46408007D01*
X63647217Y-46867269D01*
X63646783Y-47364550D01*
X63836684Y-47824143D01*
X64188007Y-48176081D01*
X64647269Y-48366783D01*
X65144550Y-48367217D01*
X65604143Y-48177316D01*
X65956081Y-47825993D01*
X66146783Y-47366731D01*
X66147217Y-46869450D01*
X65957316Y-46409857D01*
X65612000Y-46063937D01*
X65612000Y-45870000D01*
X70799000Y-45870000D01*
X70799000Y-49981370D01*
X70716355Y-50396855D01*
X70513078Y-50701080D01*
X70208857Y-50904353D01*
X69793369Y-50987000D01*
X52919243Y-50987000D01*
X52962610Y-50943633D01*
X52837706Y-50818729D01*
X53013166Y-50729168D01*
X53089335Y-50237754D01*
X53013166Y-49854832D01*
X52837705Y-49765270D01*
X52310975Y-50292000D01*
X52325117Y-50306142D01*
X51830142Y-50801117D01*
X51816000Y-50786975D01*
X51801858Y-50801117D01*
X51306883Y-50306142D01*
X51321025Y-50292000D01*
X50794295Y-49765270D01*
X50618834Y-49854832D01*
X50542665Y-50346246D01*
X50618834Y-50729168D01*
X50794294Y-50818729D01*
X50669390Y-50943633D01*
X50712757Y-50987000D01*
X25456630Y-50987000D01*
X25041145Y-50904355D01*
X24736920Y-50701078D01*
X24533647Y-50396857D01*
X24451000Y-49981369D01*
X24451000Y-49270295D01*
X51289270Y-49270295D01*
X51816000Y-49797025D01*
X52342730Y-49270295D01*
X52253168Y-49094834D01*
X51761754Y-49018665D01*
X51378832Y-49094834D01*
X51289270Y-49270295D01*
X24451000Y-49270295D01*
X24451000Y-49140000D01*
X25485000Y-49140000D01*
X25610000Y-49015000D01*
X25610000Y-48090000D01*
X26310000Y-48090000D01*
X26310000Y-49015000D01*
X26435000Y-49140000D01*
X28059456Y-49140000D01*
X28243227Y-49063880D01*
X28383879Y-48923227D01*
X28460000Y-48739456D01*
X28460000Y-48215000D01*
X28335000Y-48090000D01*
X26310000Y-48090000D01*
X25610000Y-48090000D01*
X25590000Y-48090000D01*
X25590000Y-47390000D01*
X25610000Y-47390000D01*
X25610000Y-47370000D01*
X26310000Y-47370000D01*
X26310000Y-47390000D01*
X28335000Y-47390000D01*
X28460000Y-47265000D01*
X28460000Y-46740544D01*
X28415039Y-46632000D01*
X38098260Y-46632000D01*
X37982857Y-46679684D01*
X37630919Y-47031007D01*
X37440217Y-47490269D01*
X37439783Y-47987550D01*
X37629684Y-48447143D01*
X37981007Y-48799081D01*
X38440269Y-48989783D01*
X38937550Y-48990217D01*
X39397143Y-48800316D01*
X39435821Y-48761705D01*
X40703270Y-48761705D01*
X40792832Y-48937166D01*
X41284246Y-49013335D01*
X41667168Y-48937166D01*
X41756730Y-48761705D01*
X41230000Y-48234975D01*
X40703270Y-48761705D01*
X39435821Y-48761705D01*
X39749081Y-48448993D01*
X39939783Y-47989731D01*
X39939953Y-47794246D01*
X39956665Y-47794246D01*
X40032834Y-48177168D01*
X40208295Y-48266730D01*
X40735025Y-47740000D01*
X41724975Y-47740000D01*
X42251705Y-48266730D01*
X42427166Y-48177168D01*
X42503335Y-47685754D01*
X42427166Y-47302832D01*
X42251705Y-47213270D01*
X41724975Y-47740000D01*
X40735025Y-47740000D01*
X40208295Y-47213270D01*
X40032834Y-47302832D01*
X39956665Y-47794246D01*
X39939953Y-47794246D01*
X39940217Y-47492450D01*
X39750316Y-47032857D01*
X39398993Y-46680919D01*
X39281183Y-46632000D01*
X40747318Y-46632000D01*
X40703270Y-46718295D01*
X41230000Y-47245025D01*
X41756730Y-46718295D01*
X41712682Y-46632000D01*
X51253303Y-46632000D01*
X51108857Y-46691684D01*
X50756919Y-47043007D01*
X50566217Y-47502269D01*
X50565783Y-47999550D01*
X50755684Y-48459143D01*
X51107007Y-48811081D01*
X51566269Y-49001783D01*
X52063550Y-49002217D01*
X52523143Y-48812316D01*
X52869063Y-48467000D01*
X54356000Y-48467000D01*
X54629619Y-48412574D01*
X54861581Y-48257581D01*
X54980457Y-48138705D01*
X56750270Y-48138705D01*
X56839832Y-48314166D01*
X57331246Y-48390335D01*
X57714168Y-48314166D01*
X57803730Y-48138705D01*
X57277000Y-47611975D01*
X56750270Y-48138705D01*
X54980457Y-48138705D01*
X56013891Y-47105271D01*
X56003665Y-47171246D01*
X56079834Y-47554168D01*
X56255295Y-47643730D01*
X56782025Y-47117000D01*
X57771975Y-47117000D01*
X58298705Y-47643730D01*
X58474166Y-47554168D01*
X58550335Y-47062754D01*
X58474166Y-46679832D01*
X58298705Y-46590270D01*
X57771975Y-47117000D01*
X56782025Y-47117000D01*
X56767883Y-47102858D01*
X57262858Y-46607883D01*
X57277000Y-46622025D01*
X57803730Y-46095295D01*
X57714168Y-45919834D01*
X57392658Y-45870000D01*
X59561664Y-45870000D01*
X59109857Y-46056684D01*
M02*
