M48
;DRILL file {KiCad 4.0.2-stable} date Mittwoch, 01. Februar 2017 'u37' 22:37:56
;FORMAT={-:-/ absolute / metric / decimal}
FMAT,2
METRIC,TZ
T1C0.400
T2C0.900
T3C1.600
T4C3.300
%
G90
G05
M71
T1
X44.577Y-29.21
T2
X38.69Y-27.42
X38.69Y-29.96
X38.69Y-32.5
X38.69Y-35.04
X38.69Y-37.58
X38.69Y-40.12
X38.69Y-42.66
X38.69Y-45.2
X38.69Y-47.74
X41.23Y-27.42
X41.23Y-29.96
X41.23Y-32.5
X41.23Y-35.04
X41.23Y-37.58
X41.23Y-40.12
X41.23Y-42.66
X41.23Y-45.2
X41.23Y-47.74
X48.768Y-40.132
X48.768Y-42.672
X48.768Y-45.212
X49.276Y-25.654
X51.816Y-25.654
X51.816Y-32.512
X51.816Y-35.052
X51.816Y-37.592
X51.816Y-40.132
X51.816Y-42.672
X51.816Y-45.212
X51.816Y-47.752
X51.816Y-50.292
X57.277Y-47.117
X58.547Y-44.577
X59.817Y-47.117
X61.087Y-44.577
X62.357Y-47.117
X63.627Y-44.577
X64.897Y-47.117
X66.167Y-44.577
T3
X53.848Y-41.402
X69.596Y-41.402
T4
X56.007Y-38.608
X67.437Y-38.608
T0
M30
