G04 #@! TF.FileFunction,Copper,L1,Top,Signal*
%FSLAX46Y46*%
G04 Gerber Fmt 4.6, Leading zero omitted, Abs format (unit mm)*
G04 Created by KiCad (PCBNEW 4.0.2-stable) date Mittwoch, 01. Februar 2017 'u37' 22:37:39*
%MOMM*%
G01*
G04 APERTURE LIST*
%ADD10C,0.100000*%
%ADD11C,1.500000*%
%ADD12C,4.000000*%
%ADD13C,2.300000*%
%ADD14R,1.500000X1.500000*%
%ADD15R,4.000000X1.800000*%
%ADD16C,0.600000*%
%ADD17C,0.430000*%
%ADD18C,0.300000*%
G04 APERTURE END LIST*
D10*
D11*
X41230000Y-47740000D03*
X41230000Y-45200000D03*
X41230000Y-42660000D03*
X41230000Y-40120000D03*
X41230000Y-37580000D03*
X41230000Y-35040000D03*
X41230000Y-32500000D03*
X41230000Y-29960000D03*
X41230000Y-27420000D03*
X38690000Y-47740000D03*
X38690000Y-45200000D03*
X38690000Y-42660000D03*
X38690000Y-40120000D03*
X38690000Y-37580000D03*
X38690000Y-35040000D03*
X38690000Y-32500000D03*
X38690000Y-29960000D03*
X38690000Y-27420000D03*
X66167000Y-44577000D03*
X64897000Y-47117000D03*
X63627000Y-44577000D03*
X62357000Y-47117000D03*
X61087000Y-44577000D03*
X59817000Y-47117000D03*
X58547000Y-44577000D03*
X57277000Y-47117000D03*
D12*
X67437000Y-38608000D03*
X56007000Y-38608000D03*
D13*
X53848000Y-41402000D03*
X69596000Y-41402000D03*
D11*
X49276000Y-25654000D03*
X51816000Y-25654000D03*
X48768000Y-45212000D03*
X48768000Y-42672000D03*
X48768000Y-40132000D03*
D14*
X51816000Y-32512000D03*
D11*
X51816000Y-35052000D03*
X51816000Y-37592000D03*
X51816000Y-40132000D03*
X51816000Y-42672000D03*
X51816000Y-45212000D03*
X51816000Y-47752000D03*
X51816000Y-50292000D03*
D15*
X25960000Y-47740000D03*
X25960000Y-45200000D03*
X25960000Y-42660000D03*
X25960000Y-40120000D03*
X25960000Y-37580000D03*
X25960000Y-35040000D03*
X25960000Y-32500000D03*
X25960000Y-29960000D03*
X25960000Y-27420000D03*
D16*
X44577000Y-29210000D03*
D17*
X38690000Y-45200000D02*
X39104000Y-45200000D01*
X38690000Y-42660000D02*
X38690000Y-42754000D01*
X38690000Y-42754000D02*
X39878000Y-43942000D01*
X47498000Y-43942000D02*
X48768000Y-42672000D01*
X39878000Y-43942000D02*
X47498000Y-43942000D01*
X25960000Y-42660000D02*
X38690000Y-42660000D01*
X38690000Y-40120000D02*
X38690000Y-40214000D01*
X38690000Y-40214000D02*
X39878000Y-41402000D01*
X47498000Y-41402000D02*
X48768000Y-40132000D01*
X39878000Y-41402000D02*
X47498000Y-41402000D01*
X25960000Y-40120000D02*
X38690000Y-40120000D01*
X25960000Y-37580000D02*
X38690000Y-37580000D01*
X25960000Y-35040000D02*
X38690000Y-35040000D01*
X25960000Y-32500000D02*
X38690000Y-32500000D01*
X44577000Y-29210000D02*
X44196000Y-29210000D01*
X50419000Y-35052000D02*
X44577000Y-29210000D01*
X51816000Y-35052000D02*
X50419000Y-35052000D01*
X39972000Y-31242000D02*
X38690000Y-29960000D01*
X42164000Y-31242000D02*
X39972000Y-31242000D01*
X44196000Y-29210000D02*
X42164000Y-31242000D01*
X25960000Y-29960000D02*
X38690000Y-29960000D01*
X51816000Y-25654000D02*
X51816000Y-32512000D01*
X25960000Y-27420000D02*
X38690000Y-27420000D01*
D18*
G36*
X51566269Y-36301783D02*
X52063550Y-36302217D01*
X52267370Y-36218000D01*
X55244632Y-36218000D01*
X54592714Y-36487367D01*
X53888839Y-37190015D01*
X53507435Y-38108538D01*
X53506567Y-39103099D01*
X53770207Y-39741158D01*
X53244894Y-39831497D01*
X53163947Y-39865026D01*
X53066103Y-40014722D01*
X53066217Y-39884450D01*
X52876316Y-39424857D01*
X52524993Y-39072919D01*
X52065731Y-38882217D01*
X51568450Y-38881783D01*
X51108857Y-39071684D01*
X50756919Y-39423007D01*
X50566217Y-39882269D01*
X50565783Y-40379550D01*
X50755684Y-40839143D01*
X51107007Y-41191081D01*
X51566269Y-41381783D01*
X52063550Y-41382217D01*
X52170838Y-41337886D01*
X52166246Y-41358192D01*
X52185833Y-41472088D01*
X52065731Y-41422217D01*
X51568450Y-41421783D01*
X51108857Y-41611684D01*
X50756919Y-41963007D01*
X50566217Y-42422269D01*
X50565783Y-42919550D01*
X50755684Y-43379143D01*
X51107007Y-43731081D01*
X51566269Y-43921783D01*
X52063550Y-43922217D01*
X52523143Y-43732316D01*
X52875081Y-43380993D01*
X53065783Y-42921731D01*
X53065899Y-42788966D01*
X53163947Y-42938974D01*
X53804192Y-43083754D01*
X54451106Y-42972503D01*
X54532053Y-42938974D01*
X54673537Y-42722511D01*
X68770463Y-42722511D01*
X68911947Y-42938974D01*
X69552192Y-43083754D01*
X70199106Y-42972503D01*
X70280053Y-42938974D01*
X70421537Y-42722511D01*
X69596000Y-41896975D01*
X68770463Y-42722511D01*
X54673537Y-42722511D01*
X53848000Y-41896975D01*
X53833858Y-41911117D01*
X53338883Y-41416142D01*
X53353025Y-41402000D01*
X53338883Y-41387858D01*
X53833858Y-40892883D01*
X53848000Y-40907025D01*
X53862142Y-40892883D01*
X54357117Y-41387858D01*
X54342975Y-41402000D01*
X55168511Y-42227537D01*
X55384974Y-42086053D01*
X55529754Y-41445808D01*
X55468821Y-41091488D01*
X55507538Y-41107565D01*
X56502099Y-41108433D01*
X57421286Y-40728633D01*
X58125161Y-40025985D01*
X58506565Y-39107462D01*
X58507433Y-38112901D01*
X58127633Y-37193714D01*
X57424985Y-36489839D01*
X56770324Y-36218000D01*
X66674632Y-36218000D01*
X66022714Y-36487367D01*
X65318839Y-37190015D01*
X64937435Y-38108538D01*
X64936567Y-39103099D01*
X65316367Y-40022286D01*
X66019015Y-40726161D01*
X66937538Y-41107565D01*
X67932099Y-41108433D01*
X67974706Y-41090828D01*
X67914246Y-41358192D01*
X68025497Y-42005106D01*
X68059026Y-42086053D01*
X68275489Y-42227537D01*
X69101025Y-41402000D01*
X69086883Y-41387858D01*
X69581858Y-40892883D01*
X69596000Y-40907025D01*
X70421537Y-40081489D01*
X70280053Y-39865026D01*
X69678483Y-39728992D01*
X69936565Y-39107462D01*
X69937433Y-38112901D01*
X69557633Y-37193714D01*
X68854985Y-36489839D01*
X68200324Y-36218000D01*
X70799000Y-36218000D01*
X70799000Y-40693974D01*
X70090975Y-41402000D01*
X70799000Y-42110026D01*
X70799000Y-49981370D01*
X70716355Y-50396855D01*
X70513078Y-50701080D01*
X70208857Y-50904353D01*
X69793369Y-50987000D01*
X52880891Y-50987000D01*
X53065783Y-50541731D01*
X53066217Y-50044450D01*
X52876316Y-49584857D01*
X52524993Y-49232919D01*
X52065731Y-49042217D01*
X51568450Y-49041783D01*
X51108857Y-49231684D01*
X50756919Y-49583007D01*
X50566217Y-50042269D01*
X50565783Y-50539550D01*
X50750667Y-50987000D01*
X25456630Y-50987000D01*
X25041145Y-50904355D01*
X24736920Y-50701078D01*
X24533647Y-50396857D01*
X24451000Y-49981369D01*
X24451000Y-49140000D01*
X25485000Y-49140000D01*
X25610000Y-49015000D01*
X25610000Y-48090000D01*
X26310000Y-48090000D01*
X26310000Y-49015000D01*
X26435000Y-49140000D01*
X28059456Y-49140000D01*
X28243227Y-49063880D01*
X28383879Y-48923227D01*
X28450784Y-48761705D01*
X38163270Y-48761705D01*
X38252832Y-48937166D01*
X38744246Y-49013335D01*
X39127168Y-48937166D01*
X39216730Y-48761705D01*
X38690000Y-48234975D01*
X38163270Y-48761705D01*
X28450784Y-48761705D01*
X28460000Y-48739456D01*
X28460000Y-48215000D01*
X28335000Y-48090000D01*
X26310000Y-48090000D01*
X25610000Y-48090000D01*
X25590000Y-48090000D01*
X25590000Y-47794246D01*
X37416665Y-47794246D01*
X37492834Y-48177168D01*
X37668295Y-48266730D01*
X38195025Y-47740000D01*
X39184975Y-47740000D01*
X39711705Y-48266730D01*
X39887166Y-48177168D01*
X39916556Y-47987550D01*
X39979783Y-47987550D01*
X40169684Y-48447143D01*
X40521007Y-48799081D01*
X40980269Y-48989783D01*
X41477550Y-48990217D01*
X41937143Y-48800316D01*
X42289081Y-48448993D01*
X42475705Y-47999550D01*
X50565783Y-47999550D01*
X50755684Y-48459143D01*
X51107007Y-48811081D01*
X51566269Y-49001783D01*
X52063550Y-49002217D01*
X52523143Y-48812316D01*
X52875081Y-48460993D01*
X53065783Y-48001731D01*
X53066217Y-47504450D01*
X53008412Y-47364550D01*
X56026783Y-47364550D01*
X56216684Y-47824143D01*
X56568007Y-48176081D01*
X57027269Y-48366783D01*
X57524550Y-48367217D01*
X57984143Y-48177316D01*
X58022821Y-48138705D01*
X59290270Y-48138705D01*
X59379832Y-48314166D01*
X59871246Y-48390335D01*
X60254168Y-48314166D01*
X60343730Y-48138705D01*
X59817000Y-47611975D01*
X59290270Y-48138705D01*
X58022821Y-48138705D01*
X58336081Y-47825993D01*
X58526783Y-47366731D01*
X58526953Y-47171246D01*
X58543665Y-47171246D01*
X58619834Y-47554168D01*
X58795295Y-47643730D01*
X59322025Y-47117000D01*
X60311975Y-47117000D01*
X60838705Y-47643730D01*
X61014166Y-47554168D01*
X61043556Y-47364550D01*
X61106783Y-47364550D01*
X61296684Y-47824143D01*
X61648007Y-48176081D01*
X62107269Y-48366783D01*
X62604550Y-48367217D01*
X63064143Y-48177316D01*
X63416081Y-47825993D01*
X63606783Y-47366731D01*
X63606784Y-47364550D01*
X63646783Y-47364550D01*
X63836684Y-47824143D01*
X64188007Y-48176081D01*
X64647269Y-48366783D01*
X65144550Y-48367217D01*
X65604143Y-48177316D01*
X65956081Y-47825993D01*
X66146783Y-47366731D01*
X66147217Y-46869450D01*
X65957316Y-46409857D01*
X65605993Y-46057919D01*
X65146731Y-45867217D01*
X64649450Y-45866783D01*
X64189857Y-46056684D01*
X63837919Y-46408007D01*
X63647217Y-46867269D01*
X63646783Y-47364550D01*
X63606784Y-47364550D01*
X63607217Y-46869450D01*
X63417316Y-46409857D01*
X63065993Y-46057919D01*
X62606731Y-45867217D01*
X62109450Y-45866783D01*
X61649857Y-46056684D01*
X61297919Y-46408007D01*
X61107217Y-46867269D01*
X61106783Y-47364550D01*
X61043556Y-47364550D01*
X61090335Y-47062754D01*
X61014166Y-46679832D01*
X60838705Y-46590270D01*
X60311975Y-47117000D01*
X59322025Y-47117000D01*
X58795295Y-46590270D01*
X58619834Y-46679832D01*
X58543665Y-47171246D01*
X58526953Y-47171246D01*
X58527217Y-46869450D01*
X58337316Y-46409857D01*
X58023304Y-46095295D01*
X59290270Y-46095295D01*
X59817000Y-46622025D01*
X60343730Y-46095295D01*
X60254168Y-45919834D01*
X59762754Y-45843665D01*
X59379832Y-45919834D01*
X59290270Y-46095295D01*
X58023304Y-46095295D01*
X57985993Y-46057919D01*
X57526731Y-45867217D01*
X57029450Y-45866783D01*
X56569857Y-46056684D01*
X56217919Y-46408007D01*
X56027217Y-46867269D01*
X56026783Y-47364550D01*
X53008412Y-47364550D01*
X52876316Y-47044857D01*
X52524993Y-46692919D01*
X52065731Y-46502217D01*
X51568450Y-46501783D01*
X51108857Y-46691684D01*
X50756919Y-47043007D01*
X50566217Y-47502269D01*
X50565783Y-47999550D01*
X42475705Y-47999550D01*
X42479783Y-47989731D01*
X42480217Y-47492450D01*
X42290316Y-47032857D01*
X41938993Y-46680919D01*
X41479731Y-46490217D01*
X40982450Y-46489783D01*
X40522857Y-46679684D01*
X40170919Y-47031007D01*
X39980217Y-47490269D01*
X39979783Y-47987550D01*
X39916556Y-47987550D01*
X39963335Y-47685754D01*
X39887166Y-47302832D01*
X39711705Y-47213270D01*
X39184975Y-47740000D01*
X38195025Y-47740000D01*
X37668295Y-47213270D01*
X37492834Y-47302832D01*
X37416665Y-47794246D01*
X25590000Y-47794246D01*
X25590000Y-47390000D01*
X25610000Y-47390000D01*
X25610000Y-45550000D01*
X26310000Y-45550000D01*
X26310000Y-47390000D01*
X28335000Y-47390000D01*
X28460000Y-47265000D01*
X28460000Y-46740544D01*
X28450785Y-46718295D01*
X38163270Y-46718295D01*
X38690000Y-47245025D01*
X39216730Y-46718295D01*
X39127168Y-46542834D01*
X38635754Y-46466665D01*
X38252832Y-46542834D01*
X38163270Y-46718295D01*
X28450785Y-46718295D01*
X28383879Y-46556773D01*
X28297107Y-46470000D01*
X28383879Y-46383227D01*
X28450784Y-46221705D01*
X38163270Y-46221705D01*
X38252832Y-46397166D01*
X38744246Y-46473335D01*
X39127168Y-46397166D01*
X39216730Y-46221705D01*
X38690000Y-45694975D01*
X38163270Y-46221705D01*
X28450784Y-46221705D01*
X28460000Y-46199456D01*
X28460000Y-45675000D01*
X28335000Y-45550000D01*
X26310000Y-45550000D01*
X25610000Y-45550000D01*
X25590000Y-45550000D01*
X25590000Y-45254246D01*
X37416665Y-45254246D01*
X37492834Y-45637168D01*
X37668295Y-45726730D01*
X38195025Y-45200000D01*
X37668295Y-44673270D01*
X37492834Y-44762832D01*
X37416665Y-45254246D01*
X25590000Y-45254246D01*
X25590000Y-44850000D01*
X25610000Y-44850000D01*
X25610000Y-44830000D01*
X26310000Y-44830000D01*
X26310000Y-44850000D01*
X28335000Y-44850000D01*
X28460000Y-44725000D01*
X28460000Y-44200544D01*
X28383879Y-44016773D01*
X28301511Y-43934404D01*
X28315465Y-43925425D01*
X28375200Y-43838000D01*
X38267396Y-43838000D01*
X38440269Y-43909783D01*
X38834965Y-43910127D01*
X38891077Y-43966240D01*
X38635754Y-43926665D01*
X38252832Y-44002834D01*
X38163270Y-44178295D01*
X38690000Y-44705025D01*
X38704142Y-44690883D01*
X39199117Y-45185858D01*
X39184975Y-45200000D01*
X39711705Y-45726730D01*
X39887166Y-45637168D01*
X39963335Y-45145754D01*
X39887166Y-44762832D01*
X39711706Y-44673271D01*
X39752867Y-44632110D01*
X39878000Y-44657000D01*
X40101993Y-44657000D01*
X39980217Y-44950269D01*
X39979783Y-45447550D01*
X40169684Y-45907143D01*
X40521007Y-46259081D01*
X40980269Y-46449783D01*
X41477550Y-46450217D01*
X41937143Y-46260316D01*
X41963800Y-46233705D01*
X48241270Y-46233705D01*
X48330832Y-46409166D01*
X48822246Y-46485335D01*
X49205168Y-46409166D01*
X49294730Y-46233705D01*
X51289270Y-46233705D01*
X51378832Y-46409166D01*
X51870246Y-46485335D01*
X52253168Y-46409166D01*
X52342730Y-46233705D01*
X51816000Y-45706975D01*
X51289270Y-46233705D01*
X49294730Y-46233705D01*
X48768000Y-45706975D01*
X48241270Y-46233705D01*
X41963800Y-46233705D01*
X42289081Y-45908993D01*
X42479783Y-45449731D01*
X42480217Y-44952450D01*
X42358139Y-44657000D01*
X47498000Y-44657000D01*
X47681519Y-44620496D01*
X47746294Y-44685271D01*
X47570834Y-44774832D01*
X47494665Y-45266246D01*
X47570834Y-45649168D01*
X47746295Y-45738730D01*
X48273025Y-45212000D01*
X49262975Y-45212000D01*
X49789705Y-45738730D01*
X49965166Y-45649168D01*
X50024518Y-45266246D01*
X50542665Y-45266246D01*
X50618834Y-45649168D01*
X50794295Y-45738730D01*
X51321025Y-45212000D01*
X52310975Y-45212000D01*
X52837705Y-45738730D01*
X53013166Y-45649168D01*
X53089335Y-45157754D01*
X53023056Y-44824550D01*
X57296783Y-44824550D01*
X57486684Y-45284143D01*
X57838007Y-45636081D01*
X58297269Y-45826783D01*
X58794550Y-45827217D01*
X59254143Y-45637316D01*
X59606081Y-45285993D01*
X59796783Y-44826731D01*
X59796784Y-44824550D01*
X59836783Y-44824550D01*
X60026684Y-45284143D01*
X60378007Y-45636081D01*
X60837269Y-45826783D01*
X61334550Y-45827217D01*
X61794143Y-45637316D01*
X61832821Y-45598705D01*
X63100270Y-45598705D01*
X63189832Y-45774166D01*
X63681246Y-45850335D01*
X64064168Y-45774166D01*
X64153730Y-45598705D01*
X63627000Y-45071975D01*
X63100270Y-45598705D01*
X61832821Y-45598705D01*
X62146081Y-45285993D01*
X62336783Y-44826731D01*
X62336953Y-44631246D01*
X62353665Y-44631246D01*
X62429834Y-45014168D01*
X62605295Y-45103730D01*
X63132025Y-44577000D01*
X64121975Y-44577000D01*
X64648705Y-45103730D01*
X64824166Y-45014168D01*
X64853556Y-44824550D01*
X64916783Y-44824550D01*
X65106684Y-45284143D01*
X65458007Y-45636081D01*
X65917269Y-45826783D01*
X66414550Y-45827217D01*
X66874143Y-45637316D01*
X67226081Y-45285993D01*
X67416783Y-44826731D01*
X67417217Y-44329450D01*
X67227316Y-43869857D01*
X66875993Y-43517919D01*
X66416731Y-43327217D01*
X65919450Y-43326783D01*
X65459857Y-43516684D01*
X65107919Y-43868007D01*
X64917217Y-44327269D01*
X64916783Y-44824550D01*
X64853556Y-44824550D01*
X64900335Y-44522754D01*
X64824166Y-44139832D01*
X64648705Y-44050270D01*
X64121975Y-44577000D01*
X63132025Y-44577000D01*
X62605295Y-44050270D01*
X62429834Y-44139832D01*
X62353665Y-44631246D01*
X62336953Y-44631246D01*
X62337217Y-44329450D01*
X62147316Y-43869857D01*
X61833304Y-43555295D01*
X63100270Y-43555295D01*
X63627000Y-44082025D01*
X64153730Y-43555295D01*
X64064168Y-43379834D01*
X63572754Y-43303665D01*
X63189832Y-43379834D01*
X63100270Y-43555295D01*
X61833304Y-43555295D01*
X61795993Y-43517919D01*
X61336731Y-43327217D01*
X60839450Y-43326783D01*
X60379857Y-43516684D01*
X60027919Y-43868007D01*
X59837217Y-44327269D01*
X59836783Y-44824550D01*
X59796784Y-44824550D01*
X59797217Y-44329450D01*
X59607316Y-43869857D01*
X59255993Y-43517919D01*
X58796731Y-43327217D01*
X58299450Y-43326783D01*
X57839857Y-43516684D01*
X57487919Y-43868007D01*
X57297217Y-44327269D01*
X57296783Y-44824550D01*
X53023056Y-44824550D01*
X53013166Y-44774832D01*
X52837705Y-44685270D01*
X52310975Y-45212000D01*
X51321025Y-45212000D01*
X50794295Y-44685270D01*
X50618834Y-44774832D01*
X50542665Y-45266246D01*
X50024518Y-45266246D01*
X50041335Y-45157754D01*
X49965166Y-44774832D01*
X49789705Y-44685270D01*
X49262975Y-45212000D01*
X48273025Y-45212000D01*
X48258883Y-45197858D01*
X48753858Y-44702883D01*
X48768000Y-44717025D01*
X49294730Y-44190295D01*
X51289270Y-44190295D01*
X51816000Y-44717025D01*
X52342730Y-44190295D01*
X52253168Y-44014834D01*
X51761754Y-43938665D01*
X51378832Y-44014834D01*
X51289270Y-44190295D01*
X49294730Y-44190295D01*
X49205168Y-44014834D01*
X48713754Y-43938665D01*
X48462524Y-43988638D01*
X48529370Y-43921793D01*
X49015550Y-43922217D01*
X49475143Y-43732316D01*
X49827081Y-43380993D01*
X50017783Y-42921731D01*
X50018217Y-42424450D01*
X49828316Y-41964857D01*
X49476993Y-41612919D01*
X49017731Y-41422217D01*
X48520450Y-41421783D01*
X48467501Y-41443661D01*
X48529370Y-41381793D01*
X49015550Y-41382217D01*
X49475143Y-41192316D01*
X49827081Y-40840993D01*
X50017783Y-40381731D01*
X50018217Y-39884450D01*
X49828316Y-39424857D01*
X49476993Y-39072919D01*
X49017731Y-38882217D01*
X48520450Y-38881783D01*
X48060857Y-39071684D01*
X47708919Y-39423007D01*
X47518217Y-39882269D01*
X47517790Y-40371047D01*
X47201838Y-40687000D01*
X47140000Y-40687000D01*
X47140000Y-38613705D01*
X51289270Y-38613705D01*
X51378832Y-38789166D01*
X51870246Y-38865335D01*
X52253168Y-38789166D01*
X52342730Y-38613705D01*
X51816000Y-38086975D01*
X51289270Y-38613705D01*
X47140000Y-38613705D01*
X47140000Y-37646246D01*
X50542665Y-37646246D01*
X50618834Y-38029168D01*
X50794295Y-38118730D01*
X51321025Y-37592000D01*
X52310975Y-37592000D01*
X52837705Y-38118730D01*
X53013166Y-38029168D01*
X53089335Y-37537754D01*
X53013166Y-37154832D01*
X52837705Y-37065270D01*
X52310975Y-37592000D01*
X51321025Y-37592000D01*
X50794295Y-37065270D01*
X50618834Y-37154832D01*
X50542665Y-37646246D01*
X47140000Y-37646246D01*
X47140000Y-36570295D01*
X51289270Y-36570295D01*
X51816000Y-37097025D01*
X52342730Y-36570295D01*
X52253168Y-36394834D01*
X51761754Y-36318665D01*
X51378832Y-36394834D01*
X51289270Y-36570295D01*
X47140000Y-36570295D01*
X47140000Y-36218000D01*
X51364497Y-36218000D01*
X51566269Y-36301783D01*
X51566269Y-36301783D01*
G37*
X51566269Y-36301783D02*
X52063550Y-36302217D01*
X52267370Y-36218000D01*
X55244632Y-36218000D01*
X54592714Y-36487367D01*
X53888839Y-37190015D01*
X53507435Y-38108538D01*
X53506567Y-39103099D01*
X53770207Y-39741158D01*
X53244894Y-39831497D01*
X53163947Y-39865026D01*
X53066103Y-40014722D01*
X53066217Y-39884450D01*
X52876316Y-39424857D01*
X52524993Y-39072919D01*
X52065731Y-38882217D01*
X51568450Y-38881783D01*
X51108857Y-39071684D01*
X50756919Y-39423007D01*
X50566217Y-39882269D01*
X50565783Y-40379550D01*
X50755684Y-40839143D01*
X51107007Y-41191081D01*
X51566269Y-41381783D01*
X52063550Y-41382217D01*
X52170838Y-41337886D01*
X52166246Y-41358192D01*
X52185833Y-41472088D01*
X52065731Y-41422217D01*
X51568450Y-41421783D01*
X51108857Y-41611684D01*
X50756919Y-41963007D01*
X50566217Y-42422269D01*
X50565783Y-42919550D01*
X50755684Y-43379143D01*
X51107007Y-43731081D01*
X51566269Y-43921783D01*
X52063550Y-43922217D01*
X52523143Y-43732316D01*
X52875081Y-43380993D01*
X53065783Y-42921731D01*
X53065899Y-42788966D01*
X53163947Y-42938974D01*
X53804192Y-43083754D01*
X54451106Y-42972503D01*
X54532053Y-42938974D01*
X54673537Y-42722511D01*
X68770463Y-42722511D01*
X68911947Y-42938974D01*
X69552192Y-43083754D01*
X70199106Y-42972503D01*
X70280053Y-42938974D01*
X70421537Y-42722511D01*
X69596000Y-41896975D01*
X68770463Y-42722511D01*
X54673537Y-42722511D01*
X53848000Y-41896975D01*
X53833858Y-41911117D01*
X53338883Y-41416142D01*
X53353025Y-41402000D01*
X53338883Y-41387858D01*
X53833858Y-40892883D01*
X53848000Y-40907025D01*
X53862142Y-40892883D01*
X54357117Y-41387858D01*
X54342975Y-41402000D01*
X55168511Y-42227537D01*
X55384974Y-42086053D01*
X55529754Y-41445808D01*
X55468821Y-41091488D01*
X55507538Y-41107565D01*
X56502099Y-41108433D01*
X57421286Y-40728633D01*
X58125161Y-40025985D01*
X58506565Y-39107462D01*
X58507433Y-38112901D01*
X58127633Y-37193714D01*
X57424985Y-36489839D01*
X56770324Y-36218000D01*
X66674632Y-36218000D01*
X66022714Y-36487367D01*
X65318839Y-37190015D01*
X64937435Y-38108538D01*
X64936567Y-39103099D01*
X65316367Y-40022286D01*
X66019015Y-40726161D01*
X66937538Y-41107565D01*
X67932099Y-41108433D01*
X67974706Y-41090828D01*
X67914246Y-41358192D01*
X68025497Y-42005106D01*
X68059026Y-42086053D01*
X68275489Y-42227537D01*
X69101025Y-41402000D01*
X69086883Y-41387858D01*
X69581858Y-40892883D01*
X69596000Y-40907025D01*
X70421537Y-40081489D01*
X70280053Y-39865026D01*
X69678483Y-39728992D01*
X69936565Y-39107462D01*
X69937433Y-38112901D01*
X69557633Y-37193714D01*
X68854985Y-36489839D01*
X68200324Y-36218000D01*
X70799000Y-36218000D01*
X70799000Y-40693974D01*
X70090975Y-41402000D01*
X70799000Y-42110026D01*
X70799000Y-49981370D01*
X70716355Y-50396855D01*
X70513078Y-50701080D01*
X70208857Y-50904353D01*
X69793369Y-50987000D01*
X52880891Y-50987000D01*
X53065783Y-50541731D01*
X53066217Y-50044450D01*
X52876316Y-49584857D01*
X52524993Y-49232919D01*
X52065731Y-49042217D01*
X51568450Y-49041783D01*
X51108857Y-49231684D01*
X50756919Y-49583007D01*
X50566217Y-50042269D01*
X50565783Y-50539550D01*
X50750667Y-50987000D01*
X25456630Y-50987000D01*
X25041145Y-50904355D01*
X24736920Y-50701078D01*
X24533647Y-50396857D01*
X24451000Y-49981369D01*
X24451000Y-49140000D01*
X25485000Y-49140000D01*
X25610000Y-49015000D01*
X25610000Y-48090000D01*
X26310000Y-48090000D01*
X26310000Y-49015000D01*
X26435000Y-49140000D01*
X28059456Y-49140000D01*
X28243227Y-49063880D01*
X28383879Y-48923227D01*
X28450784Y-48761705D01*
X38163270Y-48761705D01*
X38252832Y-48937166D01*
X38744246Y-49013335D01*
X39127168Y-48937166D01*
X39216730Y-48761705D01*
X38690000Y-48234975D01*
X38163270Y-48761705D01*
X28450784Y-48761705D01*
X28460000Y-48739456D01*
X28460000Y-48215000D01*
X28335000Y-48090000D01*
X26310000Y-48090000D01*
X25610000Y-48090000D01*
X25590000Y-48090000D01*
X25590000Y-47794246D01*
X37416665Y-47794246D01*
X37492834Y-48177168D01*
X37668295Y-48266730D01*
X38195025Y-47740000D01*
X39184975Y-47740000D01*
X39711705Y-48266730D01*
X39887166Y-48177168D01*
X39916556Y-47987550D01*
X39979783Y-47987550D01*
X40169684Y-48447143D01*
X40521007Y-48799081D01*
X40980269Y-48989783D01*
X41477550Y-48990217D01*
X41937143Y-48800316D01*
X42289081Y-48448993D01*
X42475705Y-47999550D01*
X50565783Y-47999550D01*
X50755684Y-48459143D01*
X51107007Y-48811081D01*
X51566269Y-49001783D01*
X52063550Y-49002217D01*
X52523143Y-48812316D01*
X52875081Y-48460993D01*
X53065783Y-48001731D01*
X53066217Y-47504450D01*
X53008412Y-47364550D01*
X56026783Y-47364550D01*
X56216684Y-47824143D01*
X56568007Y-48176081D01*
X57027269Y-48366783D01*
X57524550Y-48367217D01*
X57984143Y-48177316D01*
X58022821Y-48138705D01*
X59290270Y-48138705D01*
X59379832Y-48314166D01*
X59871246Y-48390335D01*
X60254168Y-48314166D01*
X60343730Y-48138705D01*
X59817000Y-47611975D01*
X59290270Y-48138705D01*
X58022821Y-48138705D01*
X58336081Y-47825993D01*
X58526783Y-47366731D01*
X58526953Y-47171246D01*
X58543665Y-47171246D01*
X58619834Y-47554168D01*
X58795295Y-47643730D01*
X59322025Y-47117000D01*
X60311975Y-47117000D01*
X60838705Y-47643730D01*
X61014166Y-47554168D01*
X61043556Y-47364550D01*
X61106783Y-47364550D01*
X61296684Y-47824143D01*
X61648007Y-48176081D01*
X62107269Y-48366783D01*
X62604550Y-48367217D01*
X63064143Y-48177316D01*
X63416081Y-47825993D01*
X63606783Y-47366731D01*
X63606784Y-47364550D01*
X63646783Y-47364550D01*
X63836684Y-47824143D01*
X64188007Y-48176081D01*
X64647269Y-48366783D01*
X65144550Y-48367217D01*
X65604143Y-48177316D01*
X65956081Y-47825993D01*
X66146783Y-47366731D01*
X66147217Y-46869450D01*
X65957316Y-46409857D01*
X65605993Y-46057919D01*
X65146731Y-45867217D01*
X64649450Y-45866783D01*
X64189857Y-46056684D01*
X63837919Y-46408007D01*
X63647217Y-46867269D01*
X63646783Y-47364550D01*
X63606784Y-47364550D01*
X63607217Y-46869450D01*
X63417316Y-46409857D01*
X63065993Y-46057919D01*
X62606731Y-45867217D01*
X62109450Y-45866783D01*
X61649857Y-46056684D01*
X61297919Y-46408007D01*
X61107217Y-46867269D01*
X61106783Y-47364550D01*
X61043556Y-47364550D01*
X61090335Y-47062754D01*
X61014166Y-46679832D01*
X60838705Y-46590270D01*
X60311975Y-47117000D01*
X59322025Y-47117000D01*
X58795295Y-46590270D01*
X58619834Y-46679832D01*
X58543665Y-47171246D01*
X58526953Y-47171246D01*
X58527217Y-46869450D01*
X58337316Y-46409857D01*
X58023304Y-46095295D01*
X59290270Y-46095295D01*
X59817000Y-46622025D01*
X60343730Y-46095295D01*
X60254168Y-45919834D01*
X59762754Y-45843665D01*
X59379832Y-45919834D01*
X59290270Y-46095295D01*
X58023304Y-46095295D01*
X57985993Y-46057919D01*
X57526731Y-45867217D01*
X57029450Y-45866783D01*
X56569857Y-46056684D01*
X56217919Y-46408007D01*
X56027217Y-46867269D01*
X56026783Y-47364550D01*
X53008412Y-47364550D01*
X52876316Y-47044857D01*
X52524993Y-46692919D01*
X52065731Y-46502217D01*
X51568450Y-46501783D01*
X51108857Y-46691684D01*
X50756919Y-47043007D01*
X50566217Y-47502269D01*
X50565783Y-47999550D01*
X42475705Y-47999550D01*
X42479783Y-47989731D01*
X42480217Y-47492450D01*
X42290316Y-47032857D01*
X41938993Y-46680919D01*
X41479731Y-46490217D01*
X40982450Y-46489783D01*
X40522857Y-46679684D01*
X40170919Y-47031007D01*
X39980217Y-47490269D01*
X39979783Y-47987550D01*
X39916556Y-47987550D01*
X39963335Y-47685754D01*
X39887166Y-47302832D01*
X39711705Y-47213270D01*
X39184975Y-47740000D01*
X38195025Y-47740000D01*
X37668295Y-47213270D01*
X37492834Y-47302832D01*
X37416665Y-47794246D01*
X25590000Y-47794246D01*
X25590000Y-47390000D01*
X25610000Y-47390000D01*
X25610000Y-45550000D01*
X26310000Y-45550000D01*
X26310000Y-47390000D01*
X28335000Y-47390000D01*
X28460000Y-47265000D01*
X28460000Y-46740544D01*
X28450785Y-46718295D01*
X38163270Y-46718295D01*
X38690000Y-47245025D01*
X39216730Y-46718295D01*
X39127168Y-46542834D01*
X38635754Y-46466665D01*
X38252832Y-46542834D01*
X38163270Y-46718295D01*
X28450785Y-46718295D01*
X28383879Y-46556773D01*
X28297107Y-46470000D01*
X28383879Y-46383227D01*
X28450784Y-46221705D01*
X38163270Y-46221705D01*
X38252832Y-46397166D01*
X38744246Y-46473335D01*
X39127168Y-46397166D01*
X39216730Y-46221705D01*
X38690000Y-45694975D01*
X38163270Y-46221705D01*
X28450784Y-46221705D01*
X28460000Y-46199456D01*
X28460000Y-45675000D01*
X28335000Y-45550000D01*
X26310000Y-45550000D01*
X25610000Y-45550000D01*
X25590000Y-45550000D01*
X25590000Y-45254246D01*
X37416665Y-45254246D01*
X37492834Y-45637168D01*
X37668295Y-45726730D01*
X38195025Y-45200000D01*
X37668295Y-44673270D01*
X37492834Y-44762832D01*
X37416665Y-45254246D01*
X25590000Y-45254246D01*
X25590000Y-44850000D01*
X25610000Y-44850000D01*
X25610000Y-44830000D01*
X26310000Y-44830000D01*
X26310000Y-44850000D01*
X28335000Y-44850000D01*
X28460000Y-44725000D01*
X28460000Y-44200544D01*
X28383879Y-44016773D01*
X28301511Y-43934404D01*
X28315465Y-43925425D01*
X28375200Y-43838000D01*
X38267396Y-43838000D01*
X38440269Y-43909783D01*
X38834965Y-43910127D01*
X38891077Y-43966240D01*
X38635754Y-43926665D01*
X38252832Y-44002834D01*
X38163270Y-44178295D01*
X38690000Y-44705025D01*
X38704142Y-44690883D01*
X39199117Y-45185858D01*
X39184975Y-45200000D01*
X39711705Y-45726730D01*
X39887166Y-45637168D01*
X39963335Y-45145754D01*
X39887166Y-44762832D01*
X39711706Y-44673271D01*
X39752867Y-44632110D01*
X39878000Y-44657000D01*
X40101993Y-44657000D01*
X39980217Y-44950269D01*
X39979783Y-45447550D01*
X40169684Y-45907143D01*
X40521007Y-46259081D01*
X40980269Y-46449783D01*
X41477550Y-46450217D01*
X41937143Y-46260316D01*
X41963800Y-46233705D01*
X48241270Y-46233705D01*
X48330832Y-46409166D01*
X48822246Y-46485335D01*
X49205168Y-46409166D01*
X49294730Y-46233705D01*
X51289270Y-46233705D01*
X51378832Y-46409166D01*
X51870246Y-46485335D01*
X52253168Y-46409166D01*
X52342730Y-46233705D01*
X51816000Y-45706975D01*
X51289270Y-46233705D01*
X49294730Y-46233705D01*
X48768000Y-45706975D01*
X48241270Y-46233705D01*
X41963800Y-46233705D01*
X42289081Y-45908993D01*
X42479783Y-45449731D01*
X42480217Y-44952450D01*
X42358139Y-44657000D01*
X47498000Y-44657000D01*
X47681519Y-44620496D01*
X47746294Y-44685271D01*
X47570834Y-44774832D01*
X47494665Y-45266246D01*
X47570834Y-45649168D01*
X47746295Y-45738730D01*
X48273025Y-45212000D01*
X49262975Y-45212000D01*
X49789705Y-45738730D01*
X49965166Y-45649168D01*
X50024518Y-45266246D01*
X50542665Y-45266246D01*
X50618834Y-45649168D01*
X50794295Y-45738730D01*
X51321025Y-45212000D01*
X52310975Y-45212000D01*
X52837705Y-45738730D01*
X53013166Y-45649168D01*
X53089335Y-45157754D01*
X53023056Y-44824550D01*
X57296783Y-44824550D01*
X57486684Y-45284143D01*
X57838007Y-45636081D01*
X58297269Y-45826783D01*
X58794550Y-45827217D01*
X59254143Y-45637316D01*
X59606081Y-45285993D01*
X59796783Y-44826731D01*
X59796784Y-44824550D01*
X59836783Y-44824550D01*
X60026684Y-45284143D01*
X60378007Y-45636081D01*
X60837269Y-45826783D01*
X61334550Y-45827217D01*
X61794143Y-45637316D01*
X61832821Y-45598705D01*
X63100270Y-45598705D01*
X63189832Y-45774166D01*
X63681246Y-45850335D01*
X64064168Y-45774166D01*
X64153730Y-45598705D01*
X63627000Y-45071975D01*
X63100270Y-45598705D01*
X61832821Y-45598705D01*
X62146081Y-45285993D01*
X62336783Y-44826731D01*
X62336953Y-44631246D01*
X62353665Y-44631246D01*
X62429834Y-45014168D01*
X62605295Y-45103730D01*
X63132025Y-44577000D01*
X64121975Y-44577000D01*
X64648705Y-45103730D01*
X64824166Y-45014168D01*
X64853556Y-44824550D01*
X64916783Y-44824550D01*
X65106684Y-45284143D01*
X65458007Y-45636081D01*
X65917269Y-45826783D01*
X66414550Y-45827217D01*
X66874143Y-45637316D01*
X67226081Y-45285993D01*
X67416783Y-44826731D01*
X67417217Y-44329450D01*
X67227316Y-43869857D01*
X66875993Y-43517919D01*
X66416731Y-43327217D01*
X65919450Y-43326783D01*
X65459857Y-43516684D01*
X65107919Y-43868007D01*
X64917217Y-44327269D01*
X64916783Y-44824550D01*
X64853556Y-44824550D01*
X64900335Y-44522754D01*
X64824166Y-44139832D01*
X64648705Y-44050270D01*
X64121975Y-44577000D01*
X63132025Y-44577000D01*
X62605295Y-44050270D01*
X62429834Y-44139832D01*
X62353665Y-44631246D01*
X62336953Y-44631246D01*
X62337217Y-44329450D01*
X62147316Y-43869857D01*
X61833304Y-43555295D01*
X63100270Y-43555295D01*
X63627000Y-44082025D01*
X64153730Y-43555295D01*
X64064168Y-43379834D01*
X63572754Y-43303665D01*
X63189832Y-43379834D01*
X63100270Y-43555295D01*
X61833304Y-43555295D01*
X61795993Y-43517919D01*
X61336731Y-43327217D01*
X60839450Y-43326783D01*
X60379857Y-43516684D01*
X60027919Y-43868007D01*
X59837217Y-44327269D01*
X59836783Y-44824550D01*
X59796784Y-44824550D01*
X59797217Y-44329450D01*
X59607316Y-43869857D01*
X59255993Y-43517919D01*
X58796731Y-43327217D01*
X58299450Y-43326783D01*
X57839857Y-43516684D01*
X57487919Y-43868007D01*
X57297217Y-44327269D01*
X57296783Y-44824550D01*
X53023056Y-44824550D01*
X53013166Y-44774832D01*
X52837705Y-44685270D01*
X52310975Y-45212000D01*
X51321025Y-45212000D01*
X50794295Y-44685270D01*
X50618834Y-44774832D01*
X50542665Y-45266246D01*
X50024518Y-45266246D01*
X50041335Y-45157754D01*
X49965166Y-44774832D01*
X49789705Y-44685270D01*
X49262975Y-45212000D01*
X48273025Y-45212000D01*
X48258883Y-45197858D01*
X48753858Y-44702883D01*
X48768000Y-44717025D01*
X49294730Y-44190295D01*
X51289270Y-44190295D01*
X51816000Y-44717025D01*
X52342730Y-44190295D01*
X52253168Y-44014834D01*
X51761754Y-43938665D01*
X51378832Y-44014834D01*
X51289270Y-44190295D01*
X49294730Y-44190295D01*
X49205168Y-44014834D01*
X48713754Y-43938665D01*
X48462524Y-43988638D01*
X48529370Y-43921793D01*
X49015550Y-43922217D01*
X49475143Y-43732316D01*
X49827081Y-43380993D01*
X50017783Y-42921731D01*
X50018217Y-42424450D01*
X49828316Y-41964857D01*
X49476993Y-41612919D01*
X49017731Y-41422217D01*
X48520450Y-41421783D01*
X48467501Y-41443661D01*
X48529370Y-41381793D01*
X49015550Y-41382217D01*
X49475143Y-41192316D01*
X49827081Y-40840993D01*
X50017783Y-40381731D01*
X50018217Y-39884450D01*
X49828316Y-39424857D01*
X49476993Y-39072919D01*
X49017731Y-38882217D01*
X48520450Y-38881783D01*
X48060857Y-39071684D01*
X47708919Y-39423007D01*
X47518217Y-39882269D01*
X47517790Y-40371047D01*
X47201838Y-40687000D01*
X47140000Y-40687000D01*
X47140000Y-38613705D01*
X51289270Y-38613705D01*
X51378832Y-38789166D01*
X51870246Y-38865335D01*
X52253168Y-38789166D01*
X52342730Y-38613705D01*
X51816000Y-38086975D01*
X51289270Y-38613705D01*
X47140000Y-38613705D01*
X47140000Y-37646246D01*
X50542665Y-37646246D01*
X50618834Y-38029168D01*
X50794295Y-38118730D01*
X51321025Y-37592000D01*
X52310975Y-37592000D01*
X52837705Y-38118730D01*
X53013166Y-38029168D01*
X53089335Y-37537754D01*
X53013166Y-37154832D01*
X52837705Y-37065270D01*
X52310975Y-37592000D01*
X51321025Y-37592000D01*
X50794295Y-37065270D01*
X50618834Y-37154832D01*
X50542665Y-37646246D01*
X47140000Y-37646246D01*
X47140000Y-36570295D01*
X51289270Y-36570295D01*
X51816000Y-37097025D01*
X52342730Y-36570295D01*
X52253168Y-36394834D01*
X51761754Y-36318665D01*
X51378832Y-36394834D01*
X51289270Y-36570295D01*
X47140000Y-36570295D01*
X47140000Y-36218000D01*
X51364497Y-36218000D01*
X51566269Y-36301783D01*
M02*
