G04 #@! TF.FileFunction,Legend,Bot*
%FSLAX46Y46*%
G04 Gerber Fmt 4.6, Leading zero omitted, Abs format (unit mm)*
G04 Created by KiCad (PCBNEW 4.0.2-stable) date Mittwoch, 01. Februar 2017 'u37' 22:37:39*
%MOMM*%
G01*
G04 APERTURE LIST*
%ADD10C,0.100000*%
%ADD11C,0.200000*%
%ADD12C,0.300000*%
%ADD13C,0.150000*%
G04 APERTURE END LIST*
D10*
D11*
X36012476Y-29568189D02*
X35964857Y-29472951D01*
X35964857Y-29282475D01*
X36012476Y-29187237D01*
X36107714Y-29091999D01*
X36202952Y-29044380D01*
X36393429Y-29044380D01*
X36488667Y-29091999D01*
X36583905Y-29187237D01*
X36631524Y-29282475D01*
X36631524Y-29472951D01*
X36583905Y-29568189D01*
X35631524Y-29377713D02*
X35679143Y-29139618D01*
X35822000Y-28901522D01*
X36060095Y-28758665D01*
X36298190Y-28711046D01*
X36536286Y-28758665D01*
X36774381Y-28901522D01*
X36917238Y-29139618D01*
X36964857Y-29377713D01*
X36917238Y-29615808D01*
X36774381Y-29853903D01*
X36536286Y-29996760D01*
X36298190Y-30044380D01*
X36060095Y-29996760D01*
X35822000Y-29853903D01*
X35679143Y-29615808D01*
X35631524Y-29377713D01*
X36774381Y-31234856D02*
X35774381Y-31234856D01*
X35774381Y-31472951D01*
X35822000Y-31615809D01*
X35917238Y-31711047D01*
X36012476Y-31758666D01*
X36202952Y-31806285D01*
X36345810Y-31806285D01*
X36536286Y-31758666D01*
X36631524Y-31711047D01*
X36726762Y-31615809D01*
X36774381Y-31472951D01*
X36774381Y-31234856D01*
X36774381Y-32663428D02*
X36250571Y-32663428D01*
X36155333Y-32615809D01*
X36107714Y-32520571D01*
X36107714Y-32330094D01*
X36155333Y-32234856D01*
X36726762Y-32663428D02*
X36774381Y-32568190D01*
X36774381Y-32330094D01*
X36726762Y-32234856D01*
X36631524Y-32187237D01*
X36536286Y-32187237D01*
X36441048Y-32234856D01*
X36393429Y-32330094D01*
X36393429Y-32568190D01*
X36345810Y-32663428D01*
X36107714Y-33139618D02*
X36774381Y-33139618D01*
X36202952Y-33139618D02*
X36155333Y-33187237D01*
X36107714Y-33282475D01*
X36107714Y-33425333D01*
X36155333Y-33520571D01*
X36250571Y-33568190D01*
X36774381Y-33568190D01*
X36774381Y-34044380D02*
X36107714Y-34044380D01*
X35774381Y-34044380D02*
X35822000Y-33996761D01*
X35869619Y-34044380D01*
X35822000Y-34091999D01*
X35774381Y-34044380D01*
X35869619Y-34044380D01*
X36726762Y-34901523D02*
X36774381Y-34806285D01*
X36774381Y-34615808D01*
X36726762Y-34520570D01*
X36631524Y-34472951D01*
X36250571Y-34472951D01*
X36155333Y-34520570D01*
X36107714Y-34615808D01*
X36107714Y-34806285D01*
X36155333Y-34901523D01*
X36250571Y-34949142D01*
X36345810Y-34949142D01*
X36441048Y-34472951D01*
X36774381Y-35520570D02*
X36726762Y-35425332D01*
X36631524Y-35377713D01*
X35774381Y-35377713D01*
X36774381Y-37139619D02*
X36774381Y-36663428D01*
X35774381Y-36663428D01*
X36774381Y-37901524D02*
X36250571Y-37901524D01*
X36155333Y-37853905D01*
X36107714Y-37758667D01*
X36107714Y-37568190D01*
X36155333Y-37472952D01*
X36726762Y-37901524D02*
X36774381Y-37806286D01*
X36774381Y-37568190D01*
X36726762Y-37472952D01*
X36631524Y-37425333D01*
X36536286Y-37425333D01*
X36441048Y-37472952D01*
X36393429Y-37568190D01*
X36393429Y-37806286D01*
X36345810Y-37901524D01*
X36107714Y-38234857D02*
X36107714Y-38615809D01*
X36774381Y-38377714D02*
X35917238Y-38377714D01*
X35822000Y-38425333D01*
X35774381Y-38520571D01*
X35774381Y-38615809D01*
X36107714Y-38806286D02*
X36107714Y-39187238D01*
X36774381Y-38949143D02*
X35917238Y-38949143D01*
X35822000Y-38996762D01*
X35774381Y-39092000D01*
X35774381Y-39187238D01*
X36774381Y-39663429D02*
X36726762Y-39568191D01*
X36631524Y-39520572D01*
X35774381Y-39520572D01*
X36774381Y-40044382D02*
X36107714Y-40044382D01*
X35774381Y-40044382D02*
X35822000Y-39996763D01*
X35869619Y-40044382D01*
X35822000Y-40092001D01*
X35774381Y-40044382D01*
X35869619Y-40044382D01*
X36107714Y-40520572D02*
X36774381Y-40520572D01*
X36202952Y-40520572D02*
X36155333Y-40568191D01*
X36107714Y-40663429D01*
X36107714Y-40806287D01*
X36155333Y-40901525D01*
X36250571Y-40949144D01*
X36774381Y-40949144D01*
X36107714Y-41853906D02*
X36917238Y-41853906D01*
X37012476Y-41806287D01*
X37060095Y-41758668D01*
X37107714Y-41663429D01*
X37107714Y-41520572D01*
X37060095Y-41425334D01*
X36726762Y-41853906D02*
X36774381Y-41758668D01*
X36774381Y-41568191D01*
X36726762Y-41472953D01*
X36679143Y-41425334D01*
X36583905Y-41377715D01*
X36298190Y-41377715D01*
X36202952Y-41425334D01*
X36155333Y-41472953D01*
X36107714Y-41568191D01*
X36107714Y-41758668D01*
X36155333Y-41853906D01*
X35869619Y-43044382D02*
X35822000Y-43092001D01*
X35774381Y-43187239D01*
X35774381Y-43425335D01*
X35822000Y-43520573D01*
X35869619Y-43568192D01*
X35964857Y-43615811D01*
X36060095Y-43615811D01*
X36202952Y-43568192D01*
X36774381Y-42996763D01*
X36774381Y-43615811D01*
X35774381Y-44234858D02*
X35774381Y-44330097D01*
X35822000Y-44425335D01*
X35869619Y-44472954D01*
X35964857Y-44520573D01*
X36155333Y-44568192D01*
X36393429Y-44568192D01*
X36583905Y-44520573D01*
X36679143Y-44472954D01*
X36726762Y-44425335D01*
X36774381Y-44330097D01*
X36774381Y-44234858D01*
X36726762Y-44139620D01*
X36679143Y-44092001D01*
X36583905Y-44044382D01*
X36393429Y-43996763D01*
X36155333Y-43996763D01*
X35964857Y-44044382D01*
X35869619Y-44092001D01*
X35822000Y-44139620D01*
X35774381Y-44234858D01*
X36774381Y-45520573D02*
X36774381Y-44949144D01*
X36774381Y-45234858D02*
X35774381Y-45234858D01*
X35917238Y-45139620D01*
X36012476Y-45044382D01*
X36060095Y-44949144D01*
X35774381Y-45853906D02*
X35774381Y-46520573D01*
X36774381Y-46092001D01*
X30481714Y-34139620D02*
X31291238Y-34139620D01*
X31386476Y-34092001D01*
X31434095Y-34044382D01*
X31481714Y-33949143D01*
X31481714Y-33806286D01*
X31434095Y-33711048D01*
X31100762Y-34139620D02*
X31148381Y-34044382D01*
X31148381Y-33853905D01*
X31100762Y-33758667D01*
X31053143Y-33711048D01*
X30957905Y-33663429D01*
X30672190Y-33663429D01*
X30576952Y-33711048D01*
X30529333Y-33758667D01*
X30481714Y-33853905D01*
X30481714Y-34044382D01*
X30529333Y-34139620D01*
X31148381Y-34615810D02*
X30481714Y-34615810D01*
X30148381Y-34615810D02*
X30196000Y-34568191D01*
X30243619Y-34615810D01*
X30196000Y-34663429D01*
X30148381Y-34615810D01*
X30243619Y-34615810D01*
X30481714Y-34949143D02*
X30481714Y-35330095D01*
X30148381Y-35092000D02*
X31005524Y-35092000D01*
X31100762Y-35139619D01*
X31148381Y-35234857D01*
X31148381Y-35330095D01*
X31148381Y-35663429D02*
X30148381Y-35663429D01*
X31148381Y-36092001D02*
X30624571Y-36092001D01*
X30529333Y-36044382D01*
X30481714Y-35949144D01*
X30481714Y-35806286D01*
X30529333Y-35711048D01*
X30576952Y-35663429D01*
X30481714Y-36996763D02*
X31148381Y-36996763D01*
X30481714Y-36568191D02*
X31005524Y-36568191D01*
X31100762Y-36615810D01*
X31148381Y-36711048D01*
X31148381Y-36853906D01*
X31100762Y-36949144D01*
X31053143Y-36996763D01*
X31148381Y-37472953D02*
X30148381Y-37472953D01*
X30529333Y-37472953D02*
X30481714Y-37568191D01*
X30481714Y-37758668D01*
X30529333Y-37853906D01*
X30576952Y-37901525D01*
X30672190Y-37949144D01*
X30957905Y-37949144D01*
X31053143Y-37901525D01*
X31100762Y-37853906D01*
X31148381Y-37758668D01*
X31148381Y-37568191D01*
X31100762Y-37472953D01*
X31053143Y-38377715D02*
X31100762Y-38425334D01*
X31148381Y-38377715D01*
X31100762Y-38330096D01*
X31053143Y-38377715D01*
X31148381Y-38377715D01*
X31100762Y-39282477D02*
X31148381Y-39187239D01*
X31148381Y-38996762D01*
X31100762Y-38901524D01*
X31053143Y-38853905D01*
X30957905Y-38806286D01*
X30672190Y-38806286D01*
X30576952Y-38853905D01*
X30529333Y-38901524D01*
X30481714Y-38996762D01*
X30481714Y-39187239D01*
X30529333Y-39282477D01*
X31148381Y-39853905D02*
X31100762Y-39758667D01*
X31053143Y-39711048D01*
X30957905Y-39663429D01*
X30672190Y-39663429D01*
X30576952Y-39711048D01*
X30529333Y-39758667D01*
X30481714Y-39853905D01*
X30481714Y-39996763D01*
X30529333Y-40092001D01*
X30576952Y-40139620D01*
X30672190Y-40187239D01*
X30957905Y-40187239D01*
X31053143Y-40139620D01*
X31100762Y-40092001D01*
X31148381Y-39996763D01*
X31148381Y-39853905D01*
X31148381Y-40615810D02*
X30481714Y-40615810D01*
X30576952Y-40615810D02*
X30529333Y-40663429D01*
X30481714Y-40758667D01*
X30481714Y-40901525D01*
X30529333Y-40996763D01*
X30624571Y-41044382D01*
X31148381Y-41044382D01*
X30624571Y-41044382D02*
X30529333Y-41092001D01*
X30481714Y-41187239D01*
X30481714Y-41330096D01*
X30529333Y-41425334D01*
X30624571Y-41472953D01*
X31148381Y-41472953D01*
X31700762Y-28568191D02*
X32986476Y-27711048D01*
X32748381Y-28901524D02*
X32081714Y-28901524D01*
X32176952Y-28901524D02*
X32129333Y-28949143D01*
X32081714Y-29044381D01*
X32081714Y-29187239D01*
X32129333Y-29282477D01*
X32224571Y-29330096D01*
X32748381Y-29330096D01*
X32224571Y-29330096D02*
X32129333Y-29377715D01*
X32081714Y-29472953D01*
X32081714Y-29615810D01*
X32129333Y-29711048D01*
X32224571Y-29758667D01*
X32748381Y-29758667D01*
X32700762Y-30615810D02*
X32748381Y-30520572D01*
X32748381Y-30330095D01*
X32700762Y-30234857D01*
X32605524Y-30187238D01*
X32224571Y-30187238D01*
X32129333Y-30234857D01*
X32081714Y-30330095D01*
X32081714Y-30520572D01*
X32129333Y-30615810D01*
X32224571Y-30663429D01*
X32319810Y-30663429D01*
X32415048Y-30187238D01*
X32748381Y-31520572D02*
X31748381Y-31520572D01*
X32700762Y-31520572D02*
X32748381Y-31425334D01*
X32748381Y-31234857D01*
X32700762Y-31139619D01*
X32653143Y-31092000D01*
X32557905Y-31044381D01*
X32272190Y-31044381D01*
X32176952Y-31092000D01*
X32129333Y-31139619D01*
X32081714Y-31234857D01*
X32081714Y-31425334D01*
X32129333Y-31520572D01*
X32748381Y-31996762D02*
X32081714Y-31996762D01*
X31748381Y-31996762D02*
X31796000Y-31949143D01*
X31843619Y-31996762D01*
X31796000Y-32044381D01*
X31748381Y-31996762D01*
X31843619Y-31996762D01*
X32748381Y-32901524D02*
X32224571Y-32901524D01*
X32129333Y-32853905D01*
X32081714Y-32758667D01*
X32081714Y-32568190D01*
X32129333Y-32472952D01*
X32700762Y-32901524D02*
X32748381Y-32806286D01*
X32748381Y-32568190D01*
X32700762Y-32472952D01*
X32605524Y-32425333D01*
X32510286Y-32425333D01*
X32415048Y-32472952D01*
X32367429Y-32568190D01*
X32367429Y-32806286D01*
X32319810Y-32901524D01*
X32748381Y-33806286D02*
X31748381Y-33806286D01*
X32700762Y-33806286D02*
X32748381Y-33711048D01*
X32748381Y-33520571D01*
X32700762Y-33425333D01*
X32653143Y-33377714D01*
X32557905Y-33330095D01*
X32272190Y-33330095D01*
X32176952Y-33377714D01*
X32129333Y-33425333D01*
X32081714Y-33520571D01*
X32081714Y-33711048D01*
X32129333Y-33806286D01*
X32748381Y-34425333D02*
X32700762Y-34330095D01*
X32653143Y-34282476D01*
X32557905Y-34234857D01*
X32272190Y-34234857D01*
X32176952Y-34282476D01*
X32129333Y-34330095D01*
X32081714Y-34425333D01*
X32081714Y-34568191D01*
X32129333Y-34663429D01*
X32176952Y-34711048D01*
X32272190Y-34758667D01*
X32557905Y-34758667D01*
X32653143Y-34711048D01*
X32700762Y-34663429D01*
X32748381Y-34568191D01*
X32748381Y-34425333D01*
X32081714Y-35187238D02*
X32748381Y-35187238D01*
X32176952Y-35187238D02*
X32129333Y-35234857D01*
X32081714Y-35330095D01*
X32081714Y-35472953D01*
X32129333Y-35568191D01*
X32224571Y-35615810D01*
X32748381Y-35615810D01*
X31700762Y-36806286D02*
X32986476Y-35949143D01*
X32748381Y-37139619D02*
X31748381Y-37139619D01*
X32367429Y-37234857D02*
X32748381Y-37520572D01*
X32081714Y-37520572D02*
X32462667Y-37139619D01*
X32748381Y-37949143D02*
X32081714Y-37949143D01*
X31748381Y-37949143D02*
X31796000Y-37901524D01*
X31843619Y-37949143D01*
X31796000Y-37996762D01*
X31748381Y-37949143D01*
X31843619Y-37949143D01*
X32700762Y-38853905D02*
X32748381Y-38758667D01*
X32748381Y-38568190D01*
X32700762Y-38472952D01*
X32653143Y-38425333D01*
X32557905Y-38377714D01*
X32272190Y-38377714D01*
X32176952Y-38425333D01*
X32129333Y-38472952D01*
X32081714Y-38568190D01*
X32081714Y-38758667D01*
X32129333Y-38853905D01*
X32748381Y-39711048D02*
X32224571Y-39711048D01*
X32129333Y-39663429D01*
X32081714Y-39568191D01*
X32081714Y-39377714D01*
X32129333Y-39282476D01*
X32700762Y-39711048D02*
X32748381Y-39615810D01*
X32748381Y-39377714D01*
X32700762Y-39282476D01*
X32605524Y-39234857D01*
X32510286Y-39234857D01*
X32415048Y-39282476D01*
X32367429Y-39377714D01*
X32367429Y-39615810D01*
X32319810Y-39711048D01*
X32748381Y-40615810D02*
X31748381Y-40615810D01*
X32700762Y-40615810D02*
X32748381Y-40520572D01*
X32748381Y-40330095D01*
X32700762Y-40234857D01*
X32653143Y-40187238D01*
X32557905Y-40139619D01*
X32272190Y-40139619D01*
X32176952Y-40187238D01*
X32129333Y-40234857D01*
X32081714Y-40330095D01*
X32081714Y-40520572D01*
X32129333Y-40615810D01*
X32843619Y-40853905D02*
X32843619Y-41615810D01*
X32748381Y-41853905D02*
X32081714Y-41853905D01*
X31748381Y-41853905D02*
X31796000Y-41806286D01*
X31843619Y-41853905D01*
X31796000Y-41901524D01*
X31748381Y-41853905D01*
X31843619Y-41853905D01*
X32700762Y-42758667D02*
X32748381Y-42663429D01*
X32748381Y-42472952D01*
X32700762Y-42377714D01*
X32653143Y-42330095D01*
X32557905Y-42282476D01*
X32272190Y-42282476D01*
X32176952Y-42330095D01*
X32129333Y-42377714D01*
X32081714Y-42472952D01*
X32081714Y-42663429D01*
X32129333Y-42758667D01*
X31843619Y-43139619D02*
X31796000Y-43187238D01*
X31748381Y-43282476D01*
X31748381Y-43520572D01*
X31796000Y-43615810D01*
X31843619Y-43663429D01*
X31938857Y-43711048D01*
X32034095Y-43711048D01*
X32176952Y-43663429D01*
X32748381Y-43092000D01*
X32748381Y-43711048D01*
X32748381Y-44711048D02*
X32272190Y-44377714D01*
X32748381Y-44139619D02*
X31748381Y-44139619D01*
X31748381Y-44520572D01*
X31796000Y-44615810D01*
X31843619Y-44663429D01*
X31938857Y-44711048D01*
X32081714Y-44711048D01*
X32176952Y-44663429D01*
X32224571Y-44615810D01*
X32272190Y-44520572D01*
X32272190Y-44139619D01*
X31748381Y-45425334D02*
X32462667Y-45425334D01*
X32605524Y-45377714D01*
X32700762Y-45282476D01*
X32748381Y-45139619D01*
X32748381Y-45044381D01*
X32081714Y-46330096D02*
X32748381Y-46330096D01*
X31700762Y-46092000D02*
X32415048Y-45853905D01*
X32415048Y-46472953D01*
X31748381Y-47330096D02*
X31748381Y-46853905D01*
X32224571Y-46806286D01*
X32176952Y-46853905D01*
X32129333Y-46949143D01*
X32129333Y-47187239D01*
X32176952Y-47282477D01*
X32224571Y-47330096D01*
X32319810Y-47377715D01*
X32557905Y-47377715D01*
X32653143Y-47330096D01*
X32700762Y-47282477D01*
X32748381Y-47187239D01*
X32748381Y-46949143D01*
X32700762Y-46853905D01*
X32653143Y-46806286D01*
X33821714Y-36163429D02*
X34488381Y-36401524D01*
X33821714Y-36639620D01*
X34488381Y-37544382D02*
X34488381Y-36972953D01*
X34488381Y-37258667D02*
X33488381Y-37258667D01*
X33631238Y-37163429D01*
X33726476Y-37068191D01*
X33774095Y-36972953D01*
X34393143Y-37972953D02*
X34440762Y-38020572D01*
X34488381Y-37972953D01*
X34440762Y-37925334D01*
X34393143Y-37972953D01*
X34488381Y-37972953D01*
X34488381Y-38972953D02*
X34488381Y-38401524D01*
X34488381Y-38687238D02*
X33488381Y-38687238D01*
X33631238Y-38592000D01*
X33726476Y-38496762D01*
X33774095Y-38401524D01*
D12*
X28246000Y-47740000D02*
X29516000Y-46978000D01*
X29516000Y-46978000D02*
X29516000Y-48502000D01*
X29516000Y-48502000D02*
X28246000Y-47740000D01*
D13*
X46990000Y-30010100D02*
X46789340Y-30010100D01*
X46990000Y-30010100D02*
X47190660Y-30010100D01*
X47089060Y-28409900D02*
X47190660Y-28409900D01*
X47190660Y-28409900D02*
X46789340Y-28409900D01*
X47656666Y-31948381D02*
X48228095Y-31948381D01*
X47942381Y-31948381D02*
X47942381Y-30948381D01*
X48037619Y-31091238D01*
X48132857Y-31186476D01*
X48228095Y-31234095D01*
X47275714Y-31043619D02*
X47228095Y-30996000D01*
X47132857Y-30948381D01*
X46894761Y-30948381D01*
X46799523Y-30996000D01*
X46751904Y-31043619D01*
X46704285Y-31138857D01*
X46704285Y-31234095D01*
X46751904Y-31376952D01*
X47323333Y-31948381D01*
X46704285Y-31948381D01*
X46085238Y-30948381D02*
X45989999Y-30948381D01*
X45894761Y-30996000D01*
X45847142Y-31043619D01*
X45799523Y-31138857D01*
X45751904Y-31329333D01*
X45751904Y-31567429D01*
X45799523Y-31757905D01*
X45847142Y-31853143D01*
X45894761Y-31900762D01*
X45989999Y-31948381D01*
X46085238Y-31948381D01*
X46180476Y-31900762D01*
X46228095Y-31853143D01*
X46275714Y-31757905D01*
X46323333Y-31567429D01*
X46323333Y-31329333D01*
X46275714Y-31138857D01*
X46228095Y-31043619D01*
X46180476Y-30996000D01*
X46085238Y-30948381D01*
M02*
